<svg width="600" height="450" viewBox="0 0 600 450" fill="none" xmlns="http://www.w3.org/2000/svg">
<path opacity="0.75" d="M0 449.817H600V137.965L0 138.574V449.817Z" fill="url(#paint0_linear_753_29893)"/>
<path d="M600 138.371L299.341 0L0.000366211 138.371L300.71 276.742L600 138.371Z" fill="#F8FBFF"/>
<g clip-path="url(#clip0_753_29893)">
<path d="M295.13 92.5401L204.808 44.4233L212.909 34.8541L303.23 82.9258L295.13 92.5401Z" fill="#F24444"/>
<path d="M338.198 133.931L330.097 143.501L295.13 92.5402L303.231 82.9258L338.198 133.931Z" fill="#E7EDF2"/>
<path d="M330.097 143.501L239.776 95.429L204.808 44.4234L295.13 92.5401L330.097 143.501Z" fill="#E23737"/>
<path d="M273.258 100.259L185.862 46.9513L194.548 37.8787L281.899 91.1863L273.258 100.259Z" fill="#F24444"/>
<path d="M313.806 144.178L305.165 153.25L273.258 100.259L281.899 91.1861L313.806 144.178Z" fill="#E7EDF2"/>
<path d="M305.165 153.25L217.814 99.8974L185.862 46.9509L273.258 100.259L305.165 153.25Z" fill="#E23737"/>
<path d="M296.84 156.546C300.35 157.448 303.86 158.351 307.371 159.209C308.901 159.615 309.576 157.223 308.001 156.816C304.49 155.914 300.98 155.011 297.47 154.153C295.94 153.792 295.31 156.184 296.84 156.546Z" fill="#442A25"/>
<path d="M273.844 173.923C289.626 173.923 302.421 161.091 302.421 145.261C302.421 129.431 289.626 116.599 273.844 116.599C258.061 116.599 245.267 129.431 245.267 145.261C245.267 161.091 258.061 173.923 273.844 173.923Z" fill="#FDDA44"/>
<path d="M255.032 131.765C248.732 139.844 248.012 149.865 250.487 151.806C252.962 153.747 260.118 148.827 266.418 140.747C272.719 132.667 275.779 124.542 273.304 122.556C270.828 120.616 261.333 123.685 255.032 131.765Z" fill="#FDE272"/>
<path d="M298.238 147.183C298.98 145.226 298.603 143.265 297.395 142.804C296.187 142.343 294.606 143.556 293.863 145.513C293.121 147.47 293.498 149.43 294.706 149.891C295.914 150.353 297.495 149.14 298.238 147.183Z" fill="#442A25"/>
<path d="M273.613 156.93C275.354 155.521 275.83 153.215 274.676 151.779C273.521 150.343 271.174 150.321 269.432 151.729C267.691 153.137 267.215 155.443 268.369 156.879C269.524 158.315 271.871 158.338 273.613 156.93Z" fill="#442A25"/>
<path d="M280.054 161.691C279.379 160.066 281.944 155.191 286.129 153.747C290.315 152.303 292.925 155.778 291.575 157.9C290.18 160.066 289.415 159.254 286.804 160.337C285.094 160.969 281.449 165.076 280.054 161.691Z" fill="#912B20"/>
<path d="M271.278 148.872C270.783 150.632 268.173 151.49 266.643 152.122C265.203 152.709 265.833 155.101 267.273 154.514C269.703 153.476 272.808 152.348 273.618 149.549C274.068 147.969 271.728 147.337 271.278 148.872Z" fill="#442A25"/>
<path d="M293.33 143.546C295.175 144.087 297.02 144.177 298.955 143.952C299.63 143.862 299.945 143.004 299.81 142.417C299.63 141.695 298.955 141.469 298.28 141.56C296.84 141.785 295.4 141.605 293.96 141.153C292.475 140.702 291.8 143.049 293.33 143.546Z" fill="#442A25"/>
<path d="M281.539 157.313C280.279 159.028 279.739 160.833 280.054 161.691C281.449 165.076 285.094 160.969 286.759 160.292C287.48 160.021 288.02 159.84 288.515 159.75C285.949 154.966 281.629 157.268 281.539 157.313Z" fill="#FC5454"/>
<path d="M258.858 167.649C261.018 171.576 263.268 175.503 265.608 179.34C266.418 180.694 268.533 179.475 267.723 178.076C265.383 174.239 263.133 170.358 260.973 166.385C260.208 165.031 258.092 166.25 258.858 167.649Z" fill="#442A25"/>
<path d="M226.005 190.895L136.269 137.813L171.327 57.7391L261.063 110.821L226.005 190.895Z" fill="#F24444"/>
<path d="M238.651 185.208L226.005 190.895L261.062 110.821L273.708 105.088L238.651 185.208Z" fill="#E7EDF2"/>
<path d="M273.708 105.088L183.972 52.0517L171.326 57.7391L261.063 110.821L273.708 105.088Z" fill="#FC5454"/>
<path d="M189.328 202.315L105.712 144.448L148.78 78.0509L232.396 135.917L189.328 202.315Z" fill="#F24444"/>
<path d="M202.469 198.839L189.328 202.315L232.396 135.918L245.537 132.442L202.469 198.839Z" fill="#E7EDF2"/>
<path d="M245.536 132.442L161.921 74.5755L148.78 78.0511L232.396 135.918L245.536 132.442Z" fill="#FC5454"/>
<path d="M176.647 51.5557C179.332 40.0502 175.976 29.4244 169.152 27.8223C162.327 26.2202 154.618 34.2484 151.933 45.754C149.248 57.2595 152.604 67.8853 159.429 69.4874C166.253 71.0895 173.963 63.0613 176.647 51.5557Z" fill="#FF5252"/>
<path d="M251.8 91.2347L261.533 49.5256L169.162 27.8408L159.429 69.5499L251.8 91.2347Z" fill="#FFBB24"/>
<path d="M261.512 49.5238L251.792 91.1859L288.469 79.4953C289.864 79.0439 290.269 77.2835 289.234 76.2905L261.512 49.5238Z" fill="#FFDBA6"/>
<path d="M277.038 75.1622C276.363 78.0511 276.138 80.8496 276.228 83.4224L288.424 79.5406C289.819 79.0892 290.224 77.3289 289.189 76.3358L279.964 67.3986C278.749 69.6554 277.713 72.2734 277.038 75.1622Z" fill="#494851"/>
<path d="M244.321 67.4436C241.621 78.9537 244.996 89.6062 251.837 91.186L261.557 49.4788C254.717 47.899 246.976 55.9335 244.321 67.4436Z" fill="#FFDBA6"/>
<path d="M173.847 72.9055L183.567 31.1983L169.166 27.813L158.726 47.3576L159.446 69.5202L173.847 72.9055Z" fill="#FF5252"/>
<path d="M192.802 55.3432C195.487 43.8377 192.131 33.2118 185.306 31.6097C178.482 30.0076 170.773 38.0359 168.088 49.5414C165.403 61.0469 168.759 71.6727 175.583 73.2748C182.408 74.877 190.117 66.8487 192.802 55.3432Z" fill="#EBF0F7"/>
<path d="M182.994 74.8992L192.686 33.3659L185.324 31.6377L175.632 73.171L182.994 74.8992Z" fill="#EBF0F7"/>
<path d="M200.166 57.0721C202.851 45.5666 199.495 34.9408 192.67 33.3387C185.846 31.7366 178.137 39.7648 175.452 51.2703C172.767 62.7758 176.123 73.4017 182.948 75.0038C189.772 76.6059 197.481 68.5776 200.166 57.0721Z" fill="#FFBB24"/>
<path opacity="0.23" d="M247.112 58.1454L179.067 42.1666" stroke="#C0C9D8" stroke-width="7.57556" stroke-miterlimit="10"/>
<path opacity="0.23" d="M288.469 79.4954C289.19 79.2697 289.64 78.6829 289.775 78.0059L243.376 74.4851L150.985 52.819C150.76 61.3501 154 68.2561 159.401 69.52L173.802 72.9053L251.792 91.1861L276.274 83.3773L288.469 79.4954Z" fill="#C0C9D8"/>
<path d="M234.871 92.4495L205.664 69.0681L170.876 82.79L200.083 106.171L234.871 92.4495Z" fill="#FDDA44"/>
<path d="M196.033 133.344L230.821 119.668L234.871 92.4497L200.084 106.172L196.033 133.344Z" fill="#FCC947"/>
<path d="M196.033 133.345L166.781 110.008L170.877 82.7903L200.084 106.172L196.033 133.345Z" fill="#EDB435"/>
<path d="M217.635 86.5818L218.895 78.2313L190.273 73.8981L188.878 83.1513C188.158 87.8908 194.008 92.6754 201.929 93.8941C209.849 95.0677 216.87 92.224 217.545 87.4845C217.635 87.2137 217.635 86.8977 217.635 86.5818Z" fill="#FCC947"/>
<path d="M218.895 78.9535C219.604 74.2203 213.742 69.4139 205.803 68.2182C197.865 67.0225 190.854 69.8902 190.146 74.6234C189.437 79.3566 195.298 84.1629 203.237 85.3587C211.176 86.5544 218.186 83.6867 218.895 78.9535Z" fill="#FCE856"/>
</g>
<g clip-path="url(#clip1_753_29893)">
<path opacity="0.45" d="M399.843 216.575C386.496 216.575 375.677 210.091 375.677 202.092C375.677 194.094 386.496 187.609 399.843 187.609C413.189 187.609 424.008 194.094 424.008 202.092C424.008 210.091 413.189 216.575 399.843 216.575Z" fill="#E9EFF4"/>
<path d="M381.652 174.152C378.598 174.954 375.5 175.711 372.446 176.513C370.941 176.915 370.277 174.553 371.826 174.152C374.88 173.35 377.978 172.592 381.032 171.79C382.493 171.433 383.157 173.751 381.652 174.152Z" fill="#442A25"/>
<path d="M392.628 180.791C393.027 184.668 393.204 188.59 393.115 192.467C393.071 193.804 393.381 195.854 392.761 197.146C392.186 198.305 390.858 198.26 389.707 198.438C388.202 198.661 387.539 196.344 389.088 196.077C389.84 195.943 390.592 195.898 391.301 195.631C391.035 195.898 390.725 196.21 390.46 196.478C391.124 194.116 390.769 190.996 390.725 188.545C390.681 185.961 390.504 183.332 390.238 180.747C390.061 179.276 392.451 179.276 392.628 180.791Z" fill="#442A25"/>
<path d="M410.465 181.861C410.465 186.451 410.465 190.996 410.465 195.586C410.465 197.547 410.819 199.998 410.376 201.914C410.022 203.385 408.827 203.474 407.5 203.741C405.995 204.053 405.331 201.736 406.88 201.379C408.65 201.023 408.031 198.795 408.031 197.279C408.031 195.586 408.031 193.848 408.031 192.155C408.031 188.723 408.031 185.292 408.031 181.861C408.031 180.301 410.465 180.301 410.465 181.861Z" fill="#442A25"/>
<path d="M402.586 194.695C388.8 194.695 377.624 183.442 377.624 169.561C377.624 155.681 388.8 144.428 402.586 144.428C416.373 144.428 427.549 155.681 427.549 169.561C427.549 183.442 416.373 194.695 402.586 194.695Z" fill="#FDDA44"/>
<path d="M419.051 157.708C424.539 164.793 425.159 173.572 422.99 175.31C420.822 177.048 414.581 172.681 409.093 165.595C403.605 158.51 400.905 151.38 403.073 149.642C405.242 147.904 413.519 150.622 419.051 157.708Z" fill="#FDE272"/>
<path d="M381.262 171.253C380.61 169.528 380.952 167.796 382.025 167.385C383.099 166.973 384.498 168.038 385.15 169.763C385.802 171.488 385.461 173.22 384.387 173.632C383.313 174.043 381.914 172.978 381.262 171.253Z" fill="#442A25"/>
<path d="M402.83 179.742C401.308 178.506 400.882 176.494 401.879 175.249C402.877 174.003 404.919 173.996 406.442 175.232C407.964 176.468 408.39 178.479 407.392 179.724C406.395 180.97 404.352 180.978 402.83 179.742Z" fill="#442A25"/>
<path d="M394.753 180.345C393.204 179.454 391.655 178.608 390.194 177.583C389.088 176.825 390.15 174.953 391.256 175.756C392.717 176.78 394.266 177.672 395.815 178.518C397.01 179.142 395.948 180.969 394.753 180.345Z" fill="#442A25"/>
<path d="M407.411 172.057C405.773 172.503 404.091 172.681 402.41 172.503C401.082 172.369 401.038 170.23 402.41 170.364C403.914 170.497 405.375 170.408 406.88 170.007C408.163 169.651 408.739 171.701 407.411 172.057Z" fill="#442A25"/>
<path d="M387.671 163.991C386.742 163.323 385.679 162.52 384.484 162.877C383.157 163.233 382.625 161.184 383.909 160.827C385.679 160.337 387.317 161.094 388.733 162.164C389.795 162.922 388.733 164.793 387.671 163.991Z" fill="#442A25"/>
<path d="M371.118 178.029C371.649 178.029 372.047 177.628 372.047 177.093V169.517H369.171V176.023C369.171 177.137 370.056 178.029 371.118 178.029Z" fill="#F93E3E"/>
<path d="M369.967 155.123L370.543 155.435C374.349 157.663 376.695 161.763 376.695 166.219V166.888C376.695 170.587 372.711 172.904 369.569 171.032C365.408 168.626 362.841 164.125 362.841 159.312C362.841 155.569 366.781 153.296 369.967 155.123Z" fill="#D5D9E2"/>
<path d="M369.879 158.064L370.233 158.287C372.623 159.668 374.128 162.253 374.128 165.061V165.462C374.128 167.779 371.649 169.249 369.613 168.091C367.002 166.576 365.364 163.768 365.364 160.693C365.408 158.376 367.887 156.906 369.879 158.064Z" fill="#35C3EF"/>
<path d="M370.233 168.314C367.975 166.71 366.603 164.125 366.603 161.317C366.603 159.178 368.684 157.797 370.587 158.465C372.8 159.891 374.128 162.342 374.128 165.016V165.417C374.128 167.556 372.092 168.938 370.233 168.314Z" fill="#48DDFF"/>
<path d="M383.068 187.654L395.24 185.337L403.029 202.226L390.858 204.588L383.068 187.654Z" fill="#DCDEE2"/>
<path d="M372.224 181.103L384.396 178.741L392.186 195.675L380.014 197.992L372.224 181.103Z" fill="#DCDEE2"/>
<path opacity="0.68" d="M384.396 178.741L383.068 187.654L388.07 186.718L384.396 178.741Z" fill="#AFB4C9"/>
<path d="M414.714 186.317C410.155 191.798 403.206 193.492 396.568 194.918C395.063 195.23 394.399 192.912 395.948 192.556C402.188 191.219 408.739 189.749 413.032 184.579C414.05 183.421 415.732 185.114 414.714 186.317Z" fill="#442A25"/>
</g>
<path d="M406.203 122.298L476.891 81.0349L572.693 135.976L492.868 182.067L406.318 131.953L406.203 122.298Z" fill="#F2F0F0"/>
<g opacity="0.12">
<g opacity="0.12">
<path opacity="0.12" d="M459.593 155.746L528.499 116.149" stroke="#4D4D4D" stroke-width="1.4649" stroke-miterlimit="10" stroke-linecap="round"/>
</g>
</g>
<g opacity="0.12">
<g opacity="0.12">
<path opacity="0.12" d="M470.857 162.182L539.763 122.586" stroke="#4D4D4D" stroke-width="1.4649" stroke-miterlimit="10" stroke-linecap="round"/>
</g>
</g>
<g opacity="0.12">
<g opacity="0.12">
<path opacity="0.12" d="M482.408 168.907L551.314 129.31" stroke="#4D4D4D" stroke-width="1.4649" stroke-miterlimit="10" stroke-linecap="round"/>
</g>
</g>
<g opacity="0.12">
<g opacity="0.12">
<path opacity="0.12" d="M447.582 149.194L516.43 109.598" stroke="#4D4D4D" stroke-width="1.4649" stroke-miterlimit="10" stroke-linecap="round"/>
</g>
</g>
<g opacity="0.12">
<g opacity="0.12">
<path opacity="0.12" d="M436.318 142.585L505.224 103.046" stroke="#4D4D4D" stroke-width="1.4649" stroke-miterlimit="10" stroke-linecap="round"/>
</g>
</g>
<g opacity="0.12">
<g opacity="0.12">
<path opacity="0.12" d="M424.709 136.091L493.557 96.5517" stroke="#4D4D4D" stroke-width="1.4649" stroke-miterlimit="10" stroke-linecap="round"/>
</g>
</g>
<g opacity="0.12">
<g opacity="0.12">
<path opacity="0.12" d="M414.307 128.908L483.156 89.3112" stroke="#4D4D4D" stroke-width="1.4649" stroke-miterlimit="10" stroke-linecap="round"/>
</g>
</g>
<path d="M406.203 122.298C408.617 125.057 415.054 126.149 416.261 126.379C416.72 126.494 416.893 127.068 416.548 127.356C415.341 128.563 413.617 130.114 411.146 131.091C408.79 132.011 406.376 131.896 406.376 131.896L406.203 122.298Z" fill="#E2E2E2"/>
<g opacity="0.12">
<g opacity="0.12">
<path opacity="0.12" d="M448.041 124.827C448.041 133.965 460.512 141.436 475.914 141.436C491.316 141.436 503.787 134.022 503.787 124.827C503.787 115.689 491.316 108.218 475.914 108.218C460.512 108.276 448.041 115.689 448.041 124.827Z" fill="#808080"/>
</g>
</g>
<path d="M487.12 107.528C486.661 112.183 486.431 116.838 486.546 121.493C486.603 122.815 486.258 125.229 487.006 126.436C487.753 127.585 489.189 127.528 490.454 127.758C492.12 127.987 492.867 125.401 491.143 125.171C490.281 125.057 489.419 124.999 488.615 124.654L489.534 125.574C488.73 122.873 489.189 119.252 489.247 116.436C489.304 113.448 489.534 110.459 489.822 107.528C489.994 105.804 487.293 105.804 487.12 107.528Z" fill="#442A25"/>
<path d="M466.547 105.805C466.547 111.264 466.547 116.724 466.547 122.184C466.547 124.195 466.029 127.126 466.719 129.023C467.236 130.459 468.501 130.517 469.937 130.804C471.604 131.149 472.351 128.563 470.627 128.218C468.615 127.816 469.248 125.517 469.248 123.908C469.248 121.839 469.248 119.77 469.248 117.701C469.248 113.736 469.248 109.77 469.248 105.862C469.248 104.081 466.547 104.081 466.547 105.805Z" fill="#442A25"/>
<path d="M499.822 96.8969L510.454 99.598C512.12 100 512.868 97.4141 511.143 97.0118L500.512 94.3108C498.845 93.9085 498.098 96.4946 499.822 96.8969Z" fill="#442A25"/>
<path d="M447.122 87.1847C444.651 102.931 455.397 117.701 471.144 120.172C486.891 122.644 501.661 111.897 504.132 96.15C506.603 80.4033 495.856 65.6335 480.109 63.1623C464.305 60.7486 449.593 71.4955 447.122 87.1847Z" fill="#FDDA44"/>
<path d="M456.605 78.1043C450.283 86.2075 449.536 96.3222 452.065 98.2762C454.593 100.23 461.777 95.2877 468.156 87.127C474.478 79.0238 477.581 70.8056 475.11 68.8516C472.524 66.8977 462.984 70.001 456.605 78.1043Z" fill="#FDE272"/>
<path d="M495.454 93.1036C495.109 95.1151 496.028 96.6093 497.408 96.4369C498.787 96.2644 500.224 94.4829 500.511 92.4714C500.856 90.46 499.936 88.9658 498.557 89.1382C497.178 89.3106 495.741 91.0922 495.454 93.1036Z" fill="#442A25"/>
<path d="M469.477 100.977C469.133 102.989 470.569 104.54 472.638 104.483C474.707 104.425 476.661 102.701 476.948 100.69C477.293 98.6784 475.857 97.1268 473.788 97.1842C471.719 97.2417 469.765 98.9658 469.477 100.977Z" fill="#442A25"/>
<path d="M458.731 102.299C456.95 107.356 455.628 112.529 454.766 117.816C454.478 119.483 457.064 120.23 457.352 118.506C458.214 113.218 459.536 108.046 461.317 102.989C461.892 101.38 459.306 100.632 458.731 102.299Z" fill="#442A25"/>
<path d="M486.086 105.92C487.811 104.943 489.535 103.966 491.144 102.817C492.351 101.955 491.201 99.8858 489.937 100.805C488.328 101.955 486.604 102.932 484.88 103.909C483.558 104.598 484.765 106.61 486.086 105.92Z" fill="#442A25"/>
<path d="M471.949 96.7246C473.788 97.2419 475.685 97.4143 477.524 97.1844C479.018 97.012 479.018 94.7132 477.524 94.8281C475.857 95.0005 474.19 94.8856 472.524 94.4258C471.087 94.081 470.455 96.3223 471.949 96.7246Z" fill="#442A25"/>
<path d="M494.017 87.7591C495.052 87.012 496.201 86.15 497.581 86.4948C499.075 86.8971 499.649 84.5983 498.213 84.2535C496.201 83.7362 494.42 84.5983 492.868 85.7477C491.604 86.6672 492.753 88.6786 494.017 87.7591Z" fill="#442A25"/>
<path d="M535.683 117.528L509.534 114.942L518.327 143.275L518.729 145.171C518.844 145.286 519.189 145.573 519.706 145.631C520.281 145.688 520.683 145.401 520.798 145.344L521.603 143.562L535.683 117.528Z" fill="#FF5252"/>
<path opacity="0.59" d="M535.51 118.907C534.304 122.643 528.499 124.425 521.833 123.792C515.166 123.16 509.821 120.229 509.362 116.321L509.017 119.884C509.649 123.677 514.936 129.769 521.488 130.459C528.039 131.091 533.844 125.976 535.223 122.356L535.51 118.907Z" fill="#E23737"/>
<g clip-path="url(#clip2_753_29893)">
<path d="M535.885 117.53L509.736 114.944L518.357 22.36C518.414 21.6704 519.046 21.1532 519.736 21.2106L543.356 23.5094C544.046 23.5669 544.563 24.1991 544.505 24.8887L535.885 117.53Z" fill="#E23737"/>
<path d="M522.15 122.76C529.391 123.45 535.597 120.576 536 116.266L509.851 113.68C509.391 117.99 514.908 122.07 522.15 122.76Z" fill="#E23737"/>
<path d="M518.356 22.7628L544.447 25.3489L545.482 14.4871L532.781 9.71716L519.391 11.9585L518.356 22.7628Z" fill="#FF5252"/>
<path d="M518.474 22.1474L518.019 26.7801L544.099 29.3415L544.554 24.7088L518.474 22.1474Z" fill="#E23737"/>
<path d="M517.897 26.7853C518.299 22.475 524.506 19.6015 531.747 20.2912C538.988 20.9808 544.505 25.0612 544.045 29.3714C543.643 33.6816 537.436 36.5551 530.195 35.8655C523.011 35.1184 517.494 31.038 517.897 26.7853Z" fill="#E23737"/>
<path d="M517.667 28.8546C518.069 24.5443 524.276 21.6708 531.517 22.3605C538.758 23.0501 544.275 27.1305 543.815 31.4407C543.413 35.7509 537.206 38.6244 529.965 37.9348C522.781 37.1877 517.264 33.1648 517.667 28.8546Z" fill="#E23737"/>
<path d="M518.357 22.1303C518.759 17.8201 524.966 14.9466 532.207 15.6362C539.448 16.3259 544.965 20.4062 544.506 24.7165C544.103 29.0267 537.897 31.9002 530.655 31.2105C523.472 30.4634 517.955 26.4406 518.357 22.1303Z" fill="#FF5252"/>
<g opacity="0.23">
<g opacity="0.23">
<path opacity="0.23" d="M538.069 38.7385L530.31 117.874" stroke="#C0C9D8" stroke-width="2.3689" stroke-miterlimit="10"/>
</g>
</g>
<g opacity="0.23">
<g opacity="0.23">
<path opacity="0.23" d="M528.299 20.2333L518.759 121.955L519.851 145.46C519.851 145.747 519.449 145.805 519.334 145.517L509.679 114.943L519.736 11.9577L528.299 20.2333Z" fill="#C0C9D8"/>
</g>
</g>
<path d="M519.391 11.958C519.793 7.64779 526 4.71684 533.184 5.46394C540.367 6.15358 545.885 10.2339 545.482 14.5442C545.08 18.8544 538.873 21.7854 531.69 21.0382C524.506 20.2911 518.989 16.2682 519.391 11.958Z" fill="#F24444"/>
<g opacity="0.59">
<g opacity="0.59">
<path opacity="0.59" d="M543.988 29.8308C542.781 33.5663 536.977 35.3479 530.31 34.7157C523.644 34.0835 518.299 31.1526 517.839 27.2446L517.494 30.8078C518.127 34.6008 523.471 37.4742 529.965 38.1064C536.459 38.7386 542.321 36.8421 543.643 33.2215L543.988 29.8308Z" fill="black"/>
</g>
</g>
<g opacity="0.59">
<g opacity="0.59">
<path opacity="0.59" d="M543.241 37.4174C542.035 41.1529 536.23 42.9345 529.564 42.3023C522.897 41.6702 517.552 38.7392 517.093 34.8313L516.748 38.3944C517.38 42.1874 522.725 45.0609 529.219 45.693C535.713 46.3252 541.575 44.4287 542.897 40.8081L543.241 37.4174Z" fill="black"/>
</g>
</g>
<g opacity="0.59">
<g opacity="0.59">
<path opacity="0.59" d="M537.436 101.496C536.23 105.232 530.425 107.013 523.759 106.381C517.092 105.749 511.747 102.818 511.288 98.9101L510.943 102.473C511.575 106.266 516.92 109.14 523.414 109.772C529.908 110.404 535.77 108.508 537.092 104.887L537.436 101.496Z" fill="black"/>
</g>
</g>
<g opacity="0.59">
<g opacity="0.59">
<path opacity="0.59" d="M536.689 109.082C535.482 112.817 529.678 114.599 523.012 113.967C516.345 113.335 511 110.404 510.541 106.496L510.196 110.059C510.828 113.852 516.173 116.725 522.667 117.358C529.218 117.99 535.023 116.093 536.345 112.473L536.689 109.082Z" fill="black"/>
</g>
</g>
<path d="M535.943 116.668C534.736 120.404 528.931 122.185 522.265 121.553C515.598 120.921 510.254 117.99 509.794 114.082L509.449 117.645C510.081 121.438 515.426 124.311 521.92 124.944C528.414 125.576 534.276 123.679 535.598 120.059L535.943 116.668Z" fill="#FF5252"/>
<path d="M525.54 146.322C525.483 146.207 525.368 145.862 525.31 145.977L525.483 146.494L525.54 146.322Z" fill="#FF6868"/>
<path d="M524.678 145.575C524.736 145.863 524.793 146.322 525.081 146.782C524.966 146.265 525.023 146.437 524.851 145.863C524.908 145.805 525.023 145.977 525.081 146.15C525.023 146.035 525.253 146.207 525.138 145.863C524.908 145.518 524.793 145.518 524.793 145.92C524.793 145.805 524.736 145.69 524.678 145.575Z" fill="#FF6868"/>
<path d="M518.414 146.322L518.473 146.381C518.414 146.322 518.414 146.322 518.414 146.322Z" fill="#FF6868"/>
<path d="M514.162 146.092C514.219 146.092 514.219 146.035 514.219 145.977C514.219 145.977 514.162 146.035 514.162 146.092Z" fill="#FF6868"/>
<path d="M513.299 145.634H513.358C513.299 145.634 513.299 145.575 513.299 145.634Z" fill="#FF6868"/>
<path d="M518.413 146.321L518.299 146.15C518.299 146.321 518.356 146.264 518.413 146.321Z" fill="#FF6868"/>
<path d="M524.39 147.183C524.39 147.126 524.39 147.069 524.39 147.012C524.39 147.069 524.39 147.069 524.333 147.069C524.333 147.126 524.333 147.126 524.39 147.183Z" fill="#FF6868"/>
<path d="M521.115 145.403C521.058 145.403 521.173 145.863 521.23 146.035C521.173 145.863 521.173 145.748 521.23 145.69C521.23 145.633 521.172 145.518 521.115 145.403Z" fill="#FF6868"/>
<path d="M488.934 166.036L488.875 165.977C488.934 166.036 488.934 166.036 488.934 166.036Z" fill="#FF6868"/>
<path d="M486.173 165.919C486.116 165.862 486.001 165.804 485.943 165.747L486.173 165.919Z" fill="#FF6868"/>
<path d="M502.38 154.196C502.782 154.368 502.667 154.713 503.185 154.828C503.012 154.713 502.667 154.196 502.38 154.196Z" fill="#FF6868"/>
<path d="M508.759 147.529C508.816 147.586 508.873 147.643 508.93 147.7C508.873 147.643 508.816 147.643 508.759 147.529Z" fill="#FF6868"/>
<path d="M508.242 148.851C508.185 148.851 508.127 148.794 508.127 148.851C508.127 148.851 508.185 148.851 508.185 148.909C508.127 148.851 508.127 148.794 508.242 148.851Z" fill="#FF6868"/>
<path d="M507.322 149.655L507.381 149.714V149.655H507.322Z" fill="#FF6868"/>
<path d="M490.886 163.448C490.771 163.391 490.656 163.276 490.541 163.161C490.829 163.391 490.771 163.563 490.886 163.448Z" fill="#FF6868"/>
<path d="M524.276 146.897C524.333 147.011 524.333 147.068 524.333 147.068C524.333 147.068 524.333 147.068 524.333 147.011C524.333 147.011 524.276 146.954 524.276 146.897Z" fill="#FF6868"/>
<path d="M510.539 151.724L510.368 151.782C510.482 151.782 510.539 151.724 510.539 151.724Z" fill="#FF6868"/>
<path d="M497.841 161.264L497.782 161.323C497.841 161.323 497.841 161.323 497.841 161.264Z" fill="#FF6868"/>
<path d="M510.081 152.127C509.966 152.012 509.851 151.954 509.793 151.954C509.793 152.012 509.851 152.012 509.851 152.069L510.081 152.127Z" fill="#FF6868"/>
<path d="M490.656 164.713C490.771 164.598 490.253 164.253 490.024 163.966C490.024 163.678 490.426 164.195 490.713 164.368C490.656 164.195 490.311 163.736 490.426 163.678C490.483 163.736 490.541 163.736 490.598 163.851C490.311 163.448 490.828 163.563 490.483 163.046C490.541 163.103 490.541 163.103 490.598 163.161C490.368 162.931 490.139 162.759 489.966 162.586C490.024 162.529 489.794 162.184 490.081 162.471C490.024 162.471 490.139 162.586 490.196 162.701L490.139 162.529C490.598 162.931 490.196 162.759 490.483 163.046C490.483 162.816 490.254 162.356 490.483 162.356C490.886 162.759 490.426 162.701 490.886 162.931L490.598 162.874C491.288 163.448 490.483 162.874 491.23 163.506C491.46 163.506 491.23 163.103 491.46 163.103C491.288 162.816 491.173 162.759 491.001 162.471C490.886 161.839 492.035 163.448 491.748 162.759C491.575 162.414 491.173 161.839 491.518 162.069L491.805 162.644C491.978 162.586 491.403 161.782 491.748 162.126C491.863 162.356 491.748 162.356 491.805 162.414C492.15 162.816 491.69 162.069 491.748 162.012L492.035 162.529C492.035 162.471 492.035 162.356 492.035 162.184C492.035 162.126 492.035 162.012 492.093 161.954C492.093 161.897 492.207 161.839 492.265 161.782C492.265 161.954 492.265 162.126 492.38 162.299C492.667 161.954 493.127 162.241 493.529 162.471L493.587 161.954C493.644 161.954 493.702 162.184 493.644 162.241C493.817 162.414 493.587 161.954 493.644 161.724C493.702 161.667 493.817 161.954 493.759 162.126C493.932 161.667 494.276 161.092 494.621 161.609V161.782C494.851 161.954 494.679 160.747 494.909 161.149V161.264C495.368 161.379 495.771 160.862 496.23 161.494C496.115 160.805 496.748 161.724 496.518 160.747C496.863 161.149 496.863 161.379 497.265 161.609C497.38 161.609 497.265 160.977 497.322 160.862L497.437 161.379V160.805L497.667 161.379L497.725 161.207C497.667 161.207 497.552 161.035 497.552 160.862C497.667 160.575 498.069 161.092 498.127 161.322L498.414 160.805C498.472 161.035 498.414 161.092 498.414 161.264C498.472 160.69 498.587 161.782 498.644 161.264C498.587 161.149 498.587 160.977 498.529 160.862C498.702 161.149 498.931 161.035 499.104 160.862L499.161 161.207C499.506 161.207 499.736 160.862 500.138 160.69C499.966 160.575 499.793 160 499.851 159.885L500.081 160.402C500.023 160.058 499.908 160.23 499.908 159.828C500.081 159.828 500.196 160.402 500.196 160.575L500.311 160.345C500.368 160.517 500.368 160.575 500.426 160.805C500.368 160.46 500.885 161.207 500.77 160.632L500.828 160.805C501.173 160.632 501.288 160.402 501.575 160.287C501.403 159.885 501.518 159.885 501.46 159.54C501.747 159.598 502.15 159.77 502.38 159.598C502.437 159.31 502.207 159.195 502.15 158.908C502.38 159.253 502.609 159.081 502.667 159.425C502.954 159.138 503.012 159.138 503.184 158.506C503.012 158.391 502.954 158.391 502.897 158.219C502.897 158.104 503.127 158.219 503.299 158.391V158.448C503.299 158.219 503.414 158.161 503.586 158.104C503.759 158.046 503.989 158.046 504.161 157.989C504.391 157.931 504.621 157.874 504.736 157.816C504.851 157.759 504.851 157.644 504.678 157.471V157.529L504.506 157.012C504.678 156.954 504.736 157.299 504.966 157.356C504.621 156.667 505.368 157.012 505.196 156.494C506.345 157.127 505.598 155.805 506.46 156.092L506.23 155.92C506.058 155.69 506.402 155.977 506.517 155.977C506.345 155.862 506.23 155.862 506.173 155.747C506.288 155 507.379 155 508.012 154.713C508.242 154.598 506.977 153.563 507.724 153.851L508.069 154.311C507.897 153.506 508.759 153.621 508.701 152.874C508.759 152.989 508.874 153.104 508.874 153.161C509.219 153.391 509.161 152.931 508.931 152.701C508.989 152.701 509.161 152.874 509.276 152.989C509.506 153.104 509.104 152.472 509.391 152.701C509.448 152.759 509.448 152.816 509.448 152.874C509.391 152.701 509.678 152.701 509.333 152.414C509.621 152.472 509.448 152.012 509.736 152.127C509.448 151.667 510.138 152.127 509.678 151.552C510.195 152.127 510.31 151.839 510.138 151.495C510.253 151.667 510.368 151.61 510.54 151.897C510.598 151.782 510.598 151.61 510.368 151.322C511.115 151.897 510.253 150.46 511.115 151.322C511.172 150.747 511.287 150.345 511.46 150C511.862 150.633 511.23 150.288 511.69 150.92C511.747 150.518 511.575 149.828 511.92 149.828C512.035 149.885 512.035 150.115 512.092 150.23C512.207 149.828 512.609 150 512.667 149.541C512.724 149.598 512.724 149.713 512.724 149.77C512.782 149.713 512.897 149.828 512.724 149.541V149.656C512.437 149.253 512.437 148.621 512.322 148.391C512.667 149.311 512.667 148.506 513.069 149.656C513.069 149.598 513.069 149.426 512.954 149.196C513.012 149.253 513.069 149.368 513.184 149.598C513.241 149.368 513.069 149.023 513.241 149.023C513.299 149.196 513.299 149.253 513.356 149.426C513.299 149.081 513.299 148.793 513.471 148.851C513.471 148.966 513.529 149.081 513.529 149.081C513.701 148.966 513.644 148.104 513.988 148.391C514.103 149.138 514.103 148.621 514.276 149.196L514.333 148.966L514.103 148.506C514.218 148.506 514.276 148.046 514.391 148.219L514.333 148.506L514.563 148.334L514.391 148.104C514.506 147.759 514.276 147.299 514.448 147.472C514.391 147.529 514.621 147.472 514.736 147.816C514.793 147.587 514.851 147.414 514.965 147.529C515.023 147.702 515.023 148.219 515.023 148.334C515.023 147.817 515.31 148.161 515.368 147.587C515.368 147.702 515.368 148.046 515.368 148.104L515.425 147.702C515.483 147.817 515.483 147.874 515.54 148.161C515.713 148.219 515.425 147.357 515.713 147.702C515.713 147.759 515.713 147.817 515.655 147.874C515.885 148.046 516.115 147.587 516.287 147.816C516.345 148.449 516.115 147.989 516.172 148.506C516.46 148.391 516.805 147.759 517.092 147.931L517.034 147.874C517.149 147.012 517.264 148.334 517.437 147.931C517.379 147.989 517.379 148.391 517.379 148.334C517.609 148.506 517.839 148.161 518.184 147.874L518.126 148.104C518.241 148.334 518.471 148.219 518.644 148.334C518.701 148.104 518.758 148.161 518.701 147.816C518.931 148.449 519.161 148.276 519.391 148.046C519.563 147.817 519.735 147.587 520.023 148.104C519.965 148.104 519.908 148.334 519.965 148.334L520.31 148.046C520.195 147.644 520.253 147.816 520.138 147.529C520.138 147.299 520.195 147.127 520.31 147.069C520.195 147.357 520.425 147.702 520.54 147.874C520.483 147.759 520.483 147.644 520.483 147.529C520.77 148.161 520.368 146.782 520.655 147.184V147.357C520.712 147.242 520.77 146.954 520.827 147.012C520.942 147.414 520.77 147.242 520.827 147.587C520.942 147.529 520.885 146.725 521.115 147.127C521.115 147.242 521 147.299 521 147.414C521.23 147.874 521.23 147.759 521.345 147.816L521.632 147.989L521.517 147.874C521.402 146.725 521.804 147.587 521.804 146.782C521.804 147.529 521.862 147.184 522.034 147.702C522.149 147.817 522.264 147.931 522.264 148.104C522.264 147.702 522.551 148.334 522.494 147.759C522.551 147.931 522.609 147.759 522.724 148.161C522.839 147.989 522.609 147.931 522.551 147.702C522.551 147.127 523.241 148.161 523.299 147.357C523.414 146.954 523.299 146.437 523.414 146.092C523.586 146.322 523.586 146.667 523.586 146.667C523.816 146.84 523.873 146.782 523.931 146.552C523.988 146.667 524.046 146.782 524.161 146.954C524.218 146.897 523.988 146.38 524.218 146.552C524.276 146.725 524.333 147.012 524.391 147.184C524.448 147.012 524.448 146.667 524.505 146.495C524.62 146.725 524.62 146.897 524.62 147.127C524.678 146.954 524.85 146.725 524.735 146.322L524.563 146.207C524.62 146.15 524.735 146.552 524.735 146.667C524.793 147.012 524.505 146.61 524.448 146.437L524.505 146.322C524.046 145.46 524.276 146.61 524.046 146.61L523.873 145.92L523.931 146.495C523.816 146.322 523.643 145.977 523.701 145.863C523.471 145.575 523.701 146.15 523.471 145.805C523.414 145.748 523.414 145.748 523.414 145.69L523.356 145.92C523.299 145.748 523.184 145.46 523.241 145.518C522.896 145.23 523.126 146.15 522.839 145.69V145.633C522.666 145.977 523.011 146.092 523.011 146.782L522.437 145.633L522.609 146.15C522.551 146.15 522.494 146.15 522.437 145.92C522.437 146.265 522.551 146.15 522.551 146.437C522.264 146.035 522.207 146.782 521.977 146.035C522.034 146.437 522.207 146.265 522.149 146.552C521.862 145.748 522.034 146.782 521.747 146.38C521.632 145.92 521.862 146.15 521.575 145.805C521.747 146.552 521.287 145.69 521.23 145.863C521.402 146.437 521.057 146.15 520.942 146.437C520.885 146.265 520.54 146.207 520.31 146.035V145.92C520.425 146.552 520.195 146.437 520.08 146.61C520.023 146.265 520.023 146.092 520.08 145.92H519.965C519.965 146.092 519.965 146.207 519.908 146.322L519.85 145.863C519.735 145.92 519.621 146.437 519.391 146.15C519.391 146.552 519.678 147.299 519.448 147.644C519.391 147.414 519.391 147.012 519.448 146.897C519.448 146.954 519.391 147.069 519.333 147.012L519.391 146.61C519.276 146.437 519.391 146.954 519.276 146.897C519.276 146.552 519.218 146.667 519.218 146.38C519.218 146.322 519.276 146.495 519.333 146.38C519.276 146.322 519.161 146.15 519.103 145.92C519.103 146.092 519.103 146.38 519.046 146.38C518.873 146.437 518.988 145.977 518.873 145.805C518.873 146.035 518.758 145.805 518.758 146.322C518.701 146.322 518.701 146.092 518.701 145.977C518.644 146.207 518.356 146.035 518.414 146.552V146.61C518.126 147.127 517.839 146.322 517.552 146.495V146.322C517.379 146.495 517.149 146.437 517.034 146.782C516.977 146.782 516.919 146.495 516.977 146.265C516.862 146.38 516.805 146.552 516.632 146.265C516.805 145.977 516.575 146.035 516.805 146.035C516.632 145.863 516.575 145.633 516.402 146.092C516.46 145.69 516.287 145.575 516.172 145.69L516.287 145.977C516.172 146.035 516.115 145.977 516 145.977L516.057 145.403C515.885 145.058 515.655 145.345 515.54 145.575C515.368 145.805 515.253 145.977 515.08 145.46C515.023 145.863 515.31 145.69 515.253 146.15C515.08 146.092 514.851 145.288 514.793 145.288C514.506 145 514.678 146.092 514.391 145.92C514.448 146.092 514.563 146.61 514.391 146.84C514.218 146.782 514.046 146.035 514.161 145.863C514.218 145.863 514.218 145.92 514.218 145.977C514.276 145.92 514.333 145.805 514.218 145.575V145.748C514.103 145.575 513.874 145.633 513.874 145.288C513.759 145.518 513.874 145.633 513.988 145.69C513.701 145.403 513.644 145.748 513.356 145.633C513.414 145.748 513.529 145.977 513.471 145.977C513.069 145.805 513.414 146.38 513.184 146.495C512.954 146.265 513.012 145.805 512.839 146.092C512.609 145.92 512.667 145.575 512.667 145.403C512.552 145.863 512.149 145.288 511.977 145.288L512.035 145.115C511.977 145.23 511.92 145.23 511.862 145.288L512.092 145.633C511.977 145.575 511.92 145.633 511.862 145.46C511.862 145.748 512.149 146.035 512.149 146.437C511.977 146.265 511.977 146.725 511.747 146.265C512.092 146.322 511.517 145.805 511.69 145.633C511.69 145.69 511.632 145.748 511.517 145.69C511.46 145.633 511.46 145.575 511.517 145.575C511.058 145.288 511.632 146.15 511.402 146.265C511.287 145.977 511.115 145.805 511.058 145.863C511.172 145.805 511.345 146.265 511.345 146.552C511.058 146.437 511.23 146.782 511.172 146.782L511.345 146.84C511.46 147.127 511.345 147.127 511.287 147.242C511.172 147.069 511.287 147.069 511.23 146.954C511.345 147.472 510.713 146.61 510.713 147.012C510.54 146.897 510.425 146.552 510.31 146.437C510.31 146.897 509.908 146.207 509.851 146.61C510.138 146.897 510.081 146.84 510.138 147.242L510.31 146.84L510.425 147.472C510.54 147.414 510.483 147.127 510.598 147.184C510.655 147.529 510.655 147.414 510.828 147.702C510.368 147.242 510.77 148.161 510.425 147.874L509.908 147.069C509.448 146.84 509.793 147.759 509.391 147.759L509.563 147.816C509.736 148.161 509.448 147.989 509.448 148.161C509.276 147.874 509.161 147.817 508.989 147.702C509.161 147.874 508.759 147.816 509.161 148.391L508.759 148.161C508.414 148.161 509.104 149.081 508.816 149.138C508.644 148.793 508.414 148.679 508.356 148.391C508.299 148.449 508.184 148.449 508.356 148.621C508.184 148.506 508.471 149.138 508.184 148.908C508.242 149.023 508.471 149.311 508.356 149.368C508.299 149.311 508.242 149.253 508.242 149.253C508.356 149.368 508.299 149.541 508.586 149.713C507.724 149.081 508.127 150.23 507.379 149.713C507.322 149.943 507.265 150.115 507.15 150.288C507.092 150.23 507.035 150.173 507.092 150.173C506.69 150.115 507.667 150.977 507.207 150.862C506.747 150.575 507.092 150.575 506.92 150.46C506.115 149.713 506.805 150.805 506.23 150.46V150.403C505.885 150.23 506.288 150.92 506.115 151.035C506.115 151.035 506.058 150.977 506 150.92C506.288 151.437 506.23 151.724 506.23 152.012C505.943 151.667 506.115 151.782 505.77 151.495C505.77 151.61 506.288 151.954 506.23 152.184C506 152.069 505.77 152.012 505.426 151.724L505.54 151.61C505.023 151.265 505.425 151.782 505.253 151.782L505.081 151.61C504.966 151.839 505.426 152.299 505.196 152.472L505.368 152.586C505.77 153.161 505.023 152.414 505.253 152.874L504.736 152.472C504.793 152.644 504.966 153.161 504.966 153.391C504.678 152.989 504.621 152.644 504.506 152.357C504.449 152.414 504.334 152.644 504.506 152.931C504.506 152.874 504.391 152.701 504.506 152.759C504.793 153.219 504.908 153.506 504.793 153.621C503.816 152.759 504.219 153.793 503.357 153.276C503.472 153.851 502.724 153.678 502.552 154.081C503.414 154.598 502.495 154.196 503.299 154.828C503.299 154.943 503.242 154.943 503.184 154.943L502.495 154.828C502.207 154.713 502.38 154.598 502.207 154.483C502.035 154.598 501.805 154.311 501.518 154.253C501.805 154.426 501.862 154.655 501.69 154.655L502.15 154.828C502.38 155.403 501.288 154.54 501.575 155.058L501.403 154.77C501.403 154.885 501.345 155 501.345 155.173C501.345 155.345 501.345 155.575 501.69 155.805C501.575 155.747 501.345 155.575 501.288 155.517C501.173 155.517 501.288 155.69 501.345 155.92C501.345 156.092 501.345 156.322 501.115 156.15L501 155.92C501 155.977 501.23 156.322 501.058 156.15C501 156.092 500.943 155.92 500.885 155.92C500.943 155.977 501 156.322 500.885 156.265L500.77 155.977C500.368 155.805 500.828 156.782 500.656 157.069C500.311 156.437 500.023 156.322 499.851 156.265L499.793 156.15C499.449 156.207 499.506 156.954 499.334 157.356C498.874 156.667 498.529 157.299 498.069 156.954C498.184 157.069 498.242 157.529 498.184 157.586C498.069 157.471 498.127 158.161 497.954 157.471H498.012C497.782 156.839 497.667 157.069 497.552 157.069L497.782 157.931C497.092 156.782 497.035 158.621 496.518 157.586C496.518 157.816 496.403 157.816 496.345 158.104L496.23 157.644C496 157.586 495.828 157.529 495.598 157.701V157.356C495.426 157.356 495.713 158.736 495.541 158.793L495.368 158.104C495.081 158.161 494.679 157.644 494.506 158.333C494.506 158.219 494.449 158.046 494.506 157.989C494.391 157.989 493.874 157.644 494.104 158.563C493.989 157.931 493.817 158.563 493.702 158.851L493.644 158.391C493.644 159.023 493.644 159.138 493.472 159.368C493.414 159.31 493.357 159.023 493.472 159.138C493.299 158.908 493.414 159.598 493.242 159.368V159.081C493.07 159.081 493.127 159.253 493.127 159.598C493.07 159.828 492.84 159.54 492.725 159.138C492.725 159.368 492.725 159.77 492.61 159.655C492.552 159.483 492.61 159.425 492.61 159.368C492.265 159.081 492.322 160 492.035 159.54C491.978 159.368 491.978 159.31 491.978 159.253C492.207 159.196 492.38 159.196 492.38 159.253C492.322 158.851 492.093 158.793 492.15 158.161C492.093 158.506 491.978 159.253 491.748 159.081C491.748 159.023 491.69 159.023 491.69 158.966V158.908C491.633 158.851 491.633 158.908 491.575 159.023C491.46 158.966 491.403 158.908 491.345 158.966C491.23 158.621 490.943 158.908 490.828 158.908C491.001 159.368 490.828 159.31 491.116 159.655C491.058 159.655 491.116 159.598 491.173 159.54L491.23 159.483V159.54C491.288 159.483 491.403 159.483 491.518 159.425C491.46 159.713 491.46 159.885 491.23 159.713C491.288 160 491.345 160.345 491.345 160.46C491.001 159.885 490.541 159.713 490.311 159.368C490.196 159.598 490.024 159.713 489.966 159.943C489.909 160.115 489.851 160.402 490.081 160.805C490.081 160.92 489.851 160.632 489.736 160.575C489.736 160.46 489.794 160.46 489.736 160.345C489.736 160.632 489.391 160.747 489.794 161.207C489.449 161.149 489.506 160.69 489.391 160.977L489.277 160.805C488.759 160.632 488.817 161.092 488.932 161.494C489.047 161.897 489.104 162.299 488.472 162.069C488.529 162.069 488.587 162.126 488.702 162.184C487.84 162.299 488.185 163.506 487.15 163.448C486.92 163.506 487.208 163.736 487.38 164.023L486.978 163.736L487.323 164.253C487.495 164.713 486.058 163.851 486.518 164.598L486.805 164.77C486.69 164.828 486.748 165.172 486.461 164.942C486.518 165 486.748 165.172 486.575 165.115L486.346 164.942L486.518 165.46C486.231 165.517 485.656 164.828 485.426 165.057C485.426 165.23 485.828 165.805 486.001 165.862C486.058 165.805 486.231 165.862 486.461 165.977L486.518 166.149C487.15 166.609 487.782 167.126 488.357 167.184L488.07 166.782L488.414 166.954L488.357 167.069C488.702 167.184 488.472 166.954 488.3 166.782C488.472 166.896 488.587 166.954 488.702 166.954L488.185 166.379C488.472 166.552 488.644 166.782 488.817 166.782C488.587 166.494 488.242 166.437 488.127 166.207C488.472 166.322 488.702 166.552 488.472 166.264C488.644 166.379 488.759 166.437 488.759 166.552C488.644 166.322 488.817 166.322 488.529 166.034C488.932 166.207 488.644 165.747 489.219 166.149C489.104 166.034 488.874 165.69 488.874 165.575C489.506 166.207 489.104 165.345 489.851 165.977C489.277 165.402 489.794 165.46 489.621 165C489.679 165.057 489.736 165.172 489.679 165.115C489.794 165.057 490.024 165.172 490.139 165.23C489.621 164.828 489.621 164.598 489.391 164.253C489.966 164.54 489.909 164.828 490.426 165.172C490.024 164.828 490.196 164.655 489.794 164.425C490.139 164.598 490.024 164.483 490.426 164.77C489.794 164.195 490.368 164.598 490.081 164.195C490.483 164.368 490.656 164.655 490.598 164.368C490.483 164.425 490.656 164.713 490.656 164.713ZM492.207 161.782L492.15 161.839C492.15 161.782 492.15 161.782 492.207 161.782ZM492.495 161.667C492.437 161.667 492.38 161.667 492.322 161.667C492.265 161.494 492.265 161.322 492.322 161.322C492.322 161.494 492.437 161.552 492.495 161.667ZM491.001 158.736C491.058 158.621 491.116 158.736 491.173 158.793C491.116 158.793 491.116 158.851 491.058 158.908V158.966C491.001 158.851 491.001 158.793 491.001 158.736Z" fill="#FF6868"/>
<path d="M491.001 159.368C491.001 159.426 491.059 159.483 491.059 159.483C491.059 159.426 491.059 159.368 491.001 159.368Z" fill="#FF6868"/>
<path d="M518.414 146.379C518.414 146.379 518.472 146.437 518.414 146.379C518.472 146.437 518.414 146.437 518.414 146.379Z" fill="#FF6868"/>
<path d="M520.483 147.817C520.483 147.874 520.483 147.874 520.541 147.932C520.541 147.932 520.541 147.874 520.483 147.817Z" fill="#FF6868"/>
<path d="M521.402 147.759L521.573 147.873C521.516 147.816 521.459 147.759 521.402 147.759Z" fill="#FF6868"/>
<path d="M522.149 147.758C522.149 147.701 522.092 147.644 522.092 147.587L522.149 147.758Z" fill="#FF6868"/>
<path d="M514.793 147.817C514.793 147.932 514.736 147.989 514.736 148.047C514.793 148.047 514.793 148.047 514.793 147.817Z" fill="#FF6868"/>
<path d="M514.564 148.047C514.621 148.162 514.679 148.105 514.679 148.047C514.679 147.989 514.621 147.989 514.564 148.047Z" fill="#FF6868"/>
<path d="M524.966 146.899V146.84C524.966 146.84 524.907 146.84 524.966 146.899Z" fill="#FF6868"/>
<path d="M524.965 146.724V146.84C524.965 146.84 525.023 146.84 524.965 146.724Z" fill="#FF6868"/>
<path d="M524.046 147.127L524.103 147.298C524.103 147.241 524.046 147.184 524.046 147.127Z" fill="#FF6868"/>
<path d="M523.816 147.241C523.874 147.241 524.104 147.529 524.161 147.414L524.104 147.299C524.161 147.529 523.759 146.954 523.816 147.241Z" fill="#FF6868"/>
<path d="M522.092 145.632L522.322 145.69C522.207 145.518 522.092 145.288 522.15 145.23C521.748 144.828 522.38 145.632 522.092 145.632Z" fill="#FF6868"/>
<path d="M521.402 145.575C521.46 145.46 521.345 145.345 521.287 145.23C521.287 145.403 521.287 145.46 521.402 145.575Z" fill="#FF6868"/>
<path d="M516.977 145.977L517.034 145.575C516.92 145.575 516.977 145.69 516.977 145.977Z" fill="#FF6868"/>
<path d="M516 148.162L516.115 148.391V148.047L516 148.162Z" fill="#FF6868"/>
<path d="M515.367 145.115L515.424 145.058L515.253 145.229L515.367 145.115Z" fill="#FF6868"/>
<path d="M507.15 149.195L507.495 149.54C507.552 149.425 507.15 149.023 507.15 149.195Z" fill="#FF6868"/>
<path d="M504.966 152.184C504.736 152.012 504.563 152.012 504.678 152.241C504.793 152.184 505.023 152.241 504.966 152.184Z" fill="#FF6868"/>
<path d="M497.322 157.24V157.069L497.265 157.24H497.322Z" fill="#FF6868"/>
<g opacity="0.4">
<g opacity="0.4">
<path opacity="0.4" d="M484.047 98.2203C484.047 103.622 479.68 108.852 474.22 109.887C468.76 110.921 464.393 107.358 464.393 101.956C464.393 96.5536 468.76 91.3239 474.22 90.2895C479.68 89.255 484.047 92.8181 484.047 98.2203Z" fill="#52DEFF"/>
</g>
</g>
<g opacity="0.4">
<g opacity="0.4">
<path opacity="0.4" d="M508.529 89.4272C508.529 94.8294 504.162 100.059 498.702 101.094C493.3 102.128 488.875 98.5649 488.875 93.1628C488.875 87.7606 493.242 82.5308 498.702 81.4964C504.162 80.4619 508.529 84.0251 508.529 89.4272Z" fill="#52DEFF"/>
</g>
</g>
</g>
<defs>
<linearGradient id="paint0_linear_753_29893" x1="300.009" y1="276.77" x2="300.009" y2="425.09" gradientUnits="userSpaceOnUse">
<stop stop-color="#E8EDF0"/>
<stop offset="1" stop-color="white"/>
</linearGradient>
<clipPath id="clip0_753_29893">
<rect width="245.987" height="188.946" fill="white" transform="translate(92.4812 13.3689)"/>
</clipPath>
<clipPath id="clip1_753_29893">
<rect width="65.0617" height="72.1918" fill="white" transform="matrix(-1 0 0 1 427.594 144.383)"/>
</clipPath>
<clipPath id="clip2_753_29893">
<rect width="81.607" height="162.065" fill="white" transform="translate(464.248 5.34756)"/>
</clipPath>
</defs>
</svg>
