<svg width="160" height="80" viewBox="0 0 84 43" fill="none" xmlns="http://www.w3.org/2000/svg">
<g clip-path="url(#clip0)">
<path d="M3.6649 25.1065V37.032H2.60394V25.1065H0V24.0571H6.26884V25.1065H3.6649Z" fill="#333333"/>
<path d="M12.3641 32.127C12.3641 31.5287 12.1615 31.0357 11.7562 30.6482C11.562 30.4586 11.3314 30.3095 11.0779 30.2095C10.8245 30.1096 10.5534 30.0609 10.2806 30.0663C10.0068 30.0654 9.73548 30.1182 9.48236 30.2215C9.22923 30.3247 8.99926 30.4765 8.80567 30.668C8.61208 30.8596 8.4587 31.0871 8.35435 31.3375C8.25001 31.5878 8.19676 31.8562 8.19768 32.127V37.032H7.13672V24.0571H8.19768V29.7993C8.76628 29.2862 9.511 29.0065 10.2806 29.0169C11.1679 29.0169 11.9138 29.3159 12.5183 29.9138C13.1228 30.5117 13.4251 31.2494 13.4251 32.127V37.032H12.3641V32.127Z" fill="#333333"/>
<path d="M21.1981 34.5685L22.1238 35.0839C21.7755 35.7337 21.2555 36.2779 20.6192 36.6585C19.971 37.0567 19.2219 37.2649 18.4589 37.2591C17.3262 37.2591 16.349 36.8521 15.5271 36.038C14.7053 35.2239 14.2937 34.2573 14.2925 33.1383C14.2925 31.9939 14.704 31.0209 15.5271 30.2193C16.3502 29.4177 17.3275 29.017 18.4589 29.0175C19.1729 29.0161 19.8747 29.2005 20.494 29.5521C21.1304 29.9081 21.6223 30.3595 21.9696 30.9064L16.5881 35.6004C17.0866 35.9652 17.683 36.1761 18.3024 36.2066C18.9218 36.2372 19.5364 36.0861 20.0692 35.7722C20.5503 35.4813 20.9409 35.0648 21.1981 34.5685ZM15.8738 34.8536L20.4839 30.8081C19.9264 30.3185 19.2044 30.0522 18.4589 30.0612C17.5842 30.0612 16.848 30.357 16.2502 30.9487C15.6523 31.5404 15.3536 32.27 15.3541 33.1377C15.3504 33.7481 15.5315 34.3457 15.8738 34.8536Z" fill="#333333"/>
<path d="M26.9265 24.0571C27.542 24.0569 28.1516 24.1766 28.7203 24.4094C29.289 24.6422 29.8058 24.9836 30.2411 25.414C30.6764 25.8445 31.0217 26.3555 31.2573 26.9179C31.4928 27.4804 31.614 28.0832 31.614 28.692C31.614 29.9783 31.1573 31.0722 30.244 31.9739C29.3307 32.8755 28.2249 33.3271 26.9265 33.3288H25.364V37.032H24.303V25.1065H22.7217L23.3579 24.0571H26.9265ZM25.364 32.2795H26.9265C28.0067 32.2795 28.8812 31.9233 29.5499 31.2108C30.2048 30.5335 30.5649 29.6291 30.553 28.692C30.553 27.98 30.3793 27.3506 30.032 26.8037C29.7024 26.2732 29.2364 25.8387 28.6815 25.5446C28.1428 25.2556 27.5394 25.1047 26.9265 25.1058H25.364V32.2795Z" fill="#CC0033"/>
<path d="M32.4819 26.1743H33.5404V27.3189H32.4819V26.1743ZM32.4819 29.2271H33.5404V37.0318H32.4819V29.2271Z" fill="#CC0033"/>
<path d="M42.7429 41.1695H44.055L43.476 42.2189H41.6826V35.8849C40.8465 36.801 39.8105 37.2589 38.5746 37.2585C37.4419 37.2585 36.4645 36.8514 35.6422 36.0374C34.82 35.2233 34.4086 34.2567 34.4082 33.1377C34.4082 31.9933 34.8195 31.0203 35.6422 30.2187C36.4649 29.417 37.4424 29.0164 38.5746 29.0168C39.7442 29.0168 40.7471 29.443 41.5832 30.2952L42.7404 29.2272L42.7429 41.1695ZM38.5746 36.2091C39.3982 36.2091 40.1881 35.8855 40.7705 35.3095C41.3529 34.7335 41.6801 33.9523 41.6801 33.1377C41.6801 32.3231 41.3529 31.5418 40.7705 30.9658C40.1881 30.3898 39.3982 30.0662 38.5746 30.0662C37.6999 30.0662 36.9637 30.362 36.3659 30.9537C35.7681 31.5454 35.4692 32.2734 35.4692 33.1377C35.4692 34.0028 35.7681 34.731 36.3659 35.3222C36.9637 35.9135 37.6999 36.2091 38.5746 36.2091Z" fill="#CC0033"/>
<path d="M50.1883 29.2272V37.0319L49.2815 36.3074C48.6774 36.9298 47.9317 37.241 47.0445 37.241C46.1572 37.241 45.4104 36.9416 44.8042 36.3429C44.1997 35.7454 43.8975 35.0077 43.8975 34.1297V29.2272H44.9584V34.1297C44.9545 34.403 45.0084 34.674 45.1168 34.9254C45.2252 35.1767 45.3856 35.4029 45.5877 35.5892C46.0072 35.99 46.4928 36.1904 47.0445 36.1904C47.6486 36.1904 48.1467 35.983 48.539 35.568C48.9195 35.1833 49.1309 34.6654 49.1274 34.1272V29.2272H50.1883Z" fill="#CC0033"/>
<path d="M57.9618 34.5685L58.8875 35.0839C58.5392 35.7337 58.0192 36.2779 57.3829 36.6585C56.7347 37.0567 55.9856 37.2649 55.2226 37.2591C54.0899 37.2591 53.1126 36.8521 52.2908 36.038C51.469 35.2239 51.0574 34.2573 51.0562 33.1383C51.0562 31.9939 51.4677 31.0209 52.2908 30.2193C53.1139 29.4177 54.0911 29.017 55.2226 29.0175C55.9366 29.0161 56.6384 29.2005 57.2577 29.5521C57.8941 29.9081 58.3859 30.3595 58.7333 30.9064L53.3517 35.6004C53.8504 35.9653 54.4469 36.1763 55.0664 36.2068C55.6859 36.2374 56.3007 36.0862 56.8335 35.7722C57.3144 35.4813 57.7049 35.0648 57.9618 34.5685ZM52.6381 34.8548L57.2482 30.8093C56.6904 30.3199 55.9682 30.0536 55.2226 30.0624C54.3479 30.0624 53.6116 30.3583 53.0138 30.95C52.416 31.5417 52.1171 32.2696 52.1171 33.1339C52.1128 33.7458 52.2943 34.3449 52.6381 34.8536V34.8548Z" fill="#CC0033"/>
<path d="M65.2173 37.032H60.5493V24.0571H61.6103V35.9808H65.2173V37.032Z" fill="#333333"/>
<path d="M72.7957 35.9807C71.9596 36.8326 70.9566 37.2585 69.7865 37.2585C68.6539 37.2585 67.6766 36.8514 66.8548 36.0374C66.0329 35.2233 65.6214 34.2567 65.6201 33.1377C65.6201 31.9933 66.0317 31.0203 66.8548 30.2187C67.6778 29.417 68.6551 29.0164 69.7865 29.0168C70.9562 29.0168 71.9592 29.443 72.7957 30.2952L73.953 29.2272V37.0319L72.7957 35.9807ZM69.7865 30.0681C68.9119 30.0681 68.1756 30.3639 67.5778 30.9556C66.98 31.5473 66.6811 32.2752 66.6811 33.1395C66.6811 34.0046 66.98 34.7328 67.5778 35.3241C68.1756 35.9154 68.9119 36.211 69.7865 36.211C70.6102 36.211 71.4001 35.8874 71.9825 35.3114C72.5648 34.7354 72.892 33.9541 72.892 33.1395C72.892 32.3249 72.5648 31.5437 71.9825 30.9677C71.4001 30.3917 70.6102 30.0681 69.7865 30.0681Z" fill="#333333"/>
<path d="M75.668 25.1065H74.356L74.9349 24.0571H76.7283V30.3905C77.5644 29.4748 78.5998 29.0169 79.8344 29.0169C80.9915 29.0169 81.9752 29.4175 82.7857 30.2187C83.5962 31.02 84.0011 31.993 84.0002 33.1377C84.0002 34.258 83.5954 35.2246 82.7857 36.0374C81.9761 36.8503 80.9923 37.2573 79.8344 37.2586C78.664 37.2586 77.6609 36.8326 76.8252 35.9808L75.668 37.032V25.1065ZM79.8344 30.0663C79.0108 30.0663 78.2209 30.3899 77.6385 30.9659C77.0561 31.5419 76.7289 32.3231 76.7289 33.1377C76.7289 33.9523 77.0561 34.7336 77.6385 35.3096C78.2209 35.8856 79.0108 36.2092 79.8344 36.2092C80.7083 36.2092 81.4443 35.9136 82.0425 35.3223C82.6408 34.731 82.9399 34.0029 82.9399 33.1377C82.9399 32.2734 82.6408 31.5455 82.0425 30.9538C81.4443 30.3621 80.7083 30.0663 79.8344 30.0663Z" fill="#333333"/>
<path d="M46.071 38.1284L45.6116 41.8329H45.1221L45.5833 38.1284H46.071Z" fill="#333333"/>
<path d="M46.7984 40.9735C46.7964 41.0434 46.8096 41.1129 46.837 41.1773C46.8645 41.2418 46.9056 41.2996 46.9576 41.347C47.0708 41.447 47.2188 41.4997 47.3704 41.4938C47.4729 41.4988 47.575 41.4781 47.6673 41.4337C47.7595 41.3893 47.839 41.3227 47.8984 41.2399L48.264 41.4391C48.1627 41.586 48.0283 41.7077 47.8713 41.7945C47.712 41.8681 47.5374 41.9035 47.3616 41.8978C47.0373 41.8978 46.7793 41.8034 46.5876 41.6146C46.3959 41.4258 46.2998 41.1735 46.2994 40.8578C46.2896 40.5512 46.4027 40.2532 46.6141 40.0288C46.7153 39.9207 46.8387 39.8353 46.9759 39.7782C47.1132 39.7211 47.2612 39.6936 47.4101 39.6976C47.7201 39.6976 47.9647 39.7972 48.1438 39.9964C48.323 40.1956 48.414 40.4638 48.4169 40.8011C48.4169 40.836 48.4169 40.8932 48.41 40.9723L46.7984 40.9735ZM47.9223 40.5827C47.8707 40.264 47.6926 40.1047 47.3881 40.1047C47.0999 40.1047 46.9121 40.264 46.8249 40.5827H47.9223Z" fill="#333333"/>
<path d="M51.1511 39.7666L50.8938 41.8329H50.4048L50.4338 41.6088C50.224 41.7906 50.0067 41.8815 49.7819 41.8815C49.6555 41.8857 49.5296 41.863 49.4129 41.8149C49.2962 41.7668 49.1913 41.6944 49.1054 41.6026C48.9309 41.4172 48.8438 41.1767 48.8442 40.8813C48.8442 40.5402 48.9439 40.2608 49.1431 40.0429C49.2413 39.936 49.3617 39.8515 49.4961 39.7951C49.6305 39.7387 49.7756 39.7118 49.9216 39.7162C50.0525 39.7125 50.1827 39.7373 50.3029 39.789C50.427 39.85 50.5378 39.9346 50.6289 40.0379L50.6622 39.7653L51.1511 39.7666ZM50.5546 40.7406C50.5617 40.5774 50.5044 40.4178 50.3948 40.2956C50.343 40.2387 50.2793 40.1937 50.2081 40.1637C50.1369 40.1337 50.0599 40.1195 49.9826 40.122C49.8945 40.1208 49.8072 40.1394 49.7274 40.1763C49.6475 40.2131 49.5771 40.2673 49.5213 40.3348C49.395 40.4813 49.3278 40.6688 49.3326 40.8614C49.3257 41.0238 49.3813 41.1827 49.488 41.3064C49.5373 41.3628 49.5987 41.4076 49.6677 41.4377C49.7367 41.4677 49.8116 41.4822 49.8869 41.48C49.9762 41.4799 50.0643 41.4603 50.1451 41.4228C50.2259 41.3853 50.2974 41.3306 50.3545 41.2628C50.4853 41.1199 50.5568 40.9334 50.5546 40.7406Z" fill="#333333"/>
<path d="M52.3267 39.7667L52.304 39.9447C52.4697 39.7895 52.6375 39.7119 52.8074 39.7119C52.9576 39.7128 53.1018 39.7703 53.2108 39.8725L52.8962 40.2714C52.8229 40.2023 52.7268 40.1618 52.6256 40.1575C52.5689 40.1563 52.5127 40.1687 52.462 40.1936C52.4106 40.22 52.3672 40.2593 52.3361 40.3075C52.297 40.3698 52.2677 40.4376 52.2493 40.5086C52.2238 40.605 52.2057 40.7032 52.1952 40.8023L52.0693 41.833H51.5791L51.8365 39.7667H52.3267Z" fill="#333333"/>
<path d="M54.1048 39.7666L54.0822 39.9576C54.276 39.797 54.4719 39.7166 54.6699 39.7161C54.8494 39.7075 55.0251 39.7682 55.1601 39.8854C55.2211 39.9454 55.2686 40.0174 55.2995 40.0968C55.3304 40.1762 55.344 40.2611 55.3395 40.346C55.3381 40.4721 55.3292 40.5981 55.3131 40.7232L55.1734 41.8329H54.6838L54.8342 40.618C54.8405 40.5725 54.8443 40.5321 54.8468 40.4972C54.8493 40.4624 54.8468 40.4306 54.8468 40.4026C54.8468 40.2159 54.7448 40.1219 54.5409 40.1219C54.4223 40.1193 54.3069 40.1601 54.2169 40.2365C54.1443 40.2945 54.088 40.3699 54.0532 40.4555C54.0312 40.5074 54.0148 40.5614 54.0042 40.6167C53.991 40.679 53.979 40.7537 53.9689 40.8371L53.8431 41.8329H53.3623L53.6191 39.7666H54.1048Z" fill="#333333"/>
<path d="M56.604 39.7666L56.3467 41.833H55.8564L56.1138 39.7666H56.604ZM56.757 38.7845C56.756 38.8532 56.7278 38.9188 56.6785 38.9672C56.6292 39.0156 56.5627 39.043 56.4933 39.0434C56.458 39.0436 56.4231 39.0366 56.3907 39.023C56.3582 39.0095 56.3289 38.9895 56.3045 38.9644C56.2546 38.913 56.2269 38.8445 56.2271 38.7733C56.2273 38.7051 56.2545 38.6397 56.3031 38.5913C56.3516 38.5428 56.4174 38.5152 56.4864 38.5144C56.5577 38.5169 56.6255 38.5463 56.6758 38.5964C56.726 38.6466 56.7551 38.7139 56.757 38.7845Z" fill="#333333"/>
<path d="M57.7767 39.7667L57.7547 39.9571C57.9485 39.7965 58.1444 39.716 58.3425 39.7156C58.5217 39.7072 58.6972 39.7679 58.832 39.8849C58.8932 39.9448 58.9408 40.0168 58.9719 40.0961C59.0029 40.1755 59.0166 40.2605 59.012 40.3455C59.0106 40.4716 59.0018 40.5975 58.9856 40.7226L58.8459 41.8324H58.3576L58.5086 40.6175C58.5143 40.572 58.5187 40.5316 58.5205 40.4967C58.5224 40.4619 58.5243 40.4301 58.5243 40.4021C58.5243 40.2154 58.4224 40.1214 58.2179 40.1214C58.0995 40.1188 57.9843 40.1596 57.8944 40.2359C57.8217 40.2939 57.7652 40.3694 57.7302 40.455C57.7087 40.507 57.6924 40.561 57.6817 40.6162C57.6679 40.6785 57.6565 40.7531 57.6458 40.8365L57.52 41.8324H57.0298L57.2872 39.766L57.7767 39.7667Z" fill="#333333"/>
<path d="M61.8861 39.7668L61.6287 41.8486C61.6123 41.9731 61.5943 42.0812 61.5746 42.1729C61.5583 42.2522 61.5355 42.33 61.5066 42.4057C61.4564 42.532 61.3777 42.6453 61.2763 42.7368C61.0783 42.9123 60.8209 43 60.5042 43C60.1774 43 59.9129 42.9152 59.7107 42.7455C59.6135 42.6699 59.5385 42.57 59.4936 42.4561C59.4461 42.3216 59.4248 42.1795 59.4306 42.0372H59.907C59.9187 42.2314 59.9691 42.3729 60.058 42.4617C60.1461 42.5501 60.2839 42.5942 60.4702 42.5942C60.6716 42.5942 60.8245 42.5411 60.9289 42.4349C61.0334 42.3287 61.1001 42.1602 61.129 41.9295L61.1643 41.6464C60.98 41.7951 60.7502 41.878 60.5124 41.8816C60.3813 41.8854 60.251 41.8617 60.1298 41.8122C60.0087 41.7626 59.8995 41.6883 59.8095 41.5941C59.6224 41.3958 59.5218 41.1326 59.5294 40.8615C59.5247 40.7107 59.5508 40.5606 59.606 40.4199C59.6613 40.2793 59.7446 40.1512 59.851 40.0431C59.9559 39.936 60.0822 39.8516 60.2218 39.7954C60.3615 39.7391 60.5114 39.7122 60.6621 39.7163C60.7915 39.7114 60.9204 39.7348 61.0397 39.7848C61.1634 39.8421 61.2742 39.9234 61.3657 40.0238L61.3965 39.7668H61.8861ZM61.3197 40.7476C61.3234 40.6646 61.31 40.5818 61.2803 40.5041C61.2505 40.4264 61.205 40.3555 61.1467 40.2958C61.0874 40.2376 61.0166 40.1921 60.9388 40.1623C60.8609 40.1324 60.7777 40.1187 60.6942 40.1221C60.603 40.1202 60.5124 40.1381 60.4289 40.1745C60.3454 40.211 60.271 40.2651 60.2109 40.3331C60.0825 40.4775 60.015 40.665 60.0221 40.8572C60.0155 41.0231 60.0741 41.185 60.1858 41.309C60.2433 41.3658 60.3122 41.4102 60.3881 41.4392C60.4639 41.4682 60.545 41.4813 60.6263 41.4777C60.7195 41.4806 60.8123 41.4637 60.8983 41.4282C60.9844 41.3926 61.0618 41.3393 61.1253 41.2717C61.2582 41.1295 61.3292 40.9412 61.3229 40.7476H61.3197Z" fill="#333333"/>
<path d="M65.5184 39.9665L65.4555 40.46C65.3763 40.3528 65.2788 40.2601 65.1673 40.1862C65.0706 40.1302 64.9602 40.102 64.8482 40.1046C64.7611 40.1024 64.6745 40.1196 64.595 40.1549C64.5155 40.1902 64.445 40.2428 64.3889 40.3088C64.2654 40.4554 64.2015 40.6422 64.2095 40.8328C64.2006 41.0084 64.2608 41.1806 64.3775 41.3133C64.4335 41.373 64.5018 41.4201 64.5778 41.4515C64.6538 41.4829 64.7357 41.4977 64.818 41.495C64.9913 41.495 65.17 41.4212 65.3542 41.2735L65.2912 41.7845C65.1202 41.8572 64.9363 41.8961 64.7501 41.899C64.6115 41.904 64.4735 41.8803 64.3448 41.8293C64.2161 41.7782 64.0997 41.701 64.0031 41.6027C63.8127 41.4052 63.7172 41.1494 63.7168 40.8353C63.708 40.536 63.8188 40.2453 64.0251 40.0262C64.1229 39.9205 64.2423 39.8366 64.3755 39.7803C64.5086 39.7239 64.6525 39.6964 64.7973 39.6995C65.0615 39.704 65.3161 39.7983 65.5184 39.9665Z" fill="#333333"/>
<path d="M66.3009 40.9735C66.2988 41.0434 66.312 41.1129 66.3395 41.1773C66.3669 41.2418 66.4081 41.2996 66.4601 41.347C66.5732 41.447 66.7212 41.4997 66.8729 41.4938C66.9753 41.4988 67.0773 41.4782 67.1695 41.4338C67.2616 41.3894 67.341 41.3227 67.4002 41.2399L67.7664 41.4391C67.6651 41.586 67.5307 41.7077 67.3738 41.7945C67.2145 41.8681 67.0398 41.9035 66.8641 41.8978C66.5402 41.8978 66.2822 41.8034 66.0901 41.6146C65.8979 41.4258 65.8019 41.1735 65.8019 40.8578C65.7921 40.5512 65.9052 40.2532 66.1165 40.0288C66.2177 39.9207 66.3411 39.8353 66.4784 39.7782C66.6156 39.7211 66.7636 39.6936 66.9125 39.6976C67.2225 39.6976 67.4671 39.7972 67.6462 39.9964C67.8254 40.1956 67.9162 40.4638 67.9187 40.8011C67.9187 40.836 67.9187 40.8932 67.9124 40.9723L66.3009 40.9735ZM67.4247 40.5827C67.3731 40.264 67.1951 40.1047 66.8905 40.1047C66.6023 40.1047 66.4135 40.264 66.3241 40.5827H67.4247Z" fill="#333333"/>
<path d="M69.0945 39.7666L69.0724 39.9577C69.2663 39.7971 69.4622 39.7166 69.6602 39.7162C69.8394 39.7078 70.0149 39.7685 70.1498 39.8855C70.2109 39.9454 70.2586 40.0174 70.2896 40.0968C70.3206 40.1761 70.3343 40.2611 70.3297 40.3461C70.3283 40.4722 70.3195 40.5981 70.3033 40.7232L70.1642 41.833H69.6759L69.827 40.6181C69.8326 40.5726 69.837 40.5322 69.8389 40.4973C69.8408 40.4625 69.8427 40.4307 69.8427 40.4027C69.8427 40.216 69.7407 40.122 69.5362 40.122C69.4178 40.1194 69.3026 40.1602 69.2128 40.2365C69.1401 40.2946 69.0835 40.37 69.0485 40.4556C69.0268 40.5075 69.0105 40.5616 69.0001 40.6168C68.9862 40.6791 68.9749 40.7537 68.9642 40.8371L68.8384 41.833H68.3481L68.6055 39.7666H69.0945Z" fill="#333333"/>
<path d="M71.5719 40.2167L71.3699 41.8349H70.8797L71.0817 40.2167H70.8042L70.8602 39.7667H71.1371L71.2566 38.8088H71.7469L71.6273 39.7667H72.0797L72.0244 40.2167H71.5719Z" fill="#333333"/>
<path d="M72.9266 39.7667L72.9039 39.9447C73.0701 39.7897 73.2368 39.7119 73.4073 39.7119C73.5575 39.7128 73.7018 39.7702 73.8107 39.8725L73.4961 40.2714C73.4228 40.2023 73.3267 40.1618 73.2255 40.1575C73.1688 40.1563 73.1126 40.1687 73.0619 40.1936C73.0107 40.2202 72.9673 40.2594 72.936 40.3075C72.8969 40.3697 72.8678 40.4375 72.8498 40.5086C72.8238 40.6049 72.8054 40.7031 72.7951 40.8023L72.6692 41.833H72.1777L72.4351 39.7667H72.9266Z" fill="#333333"/>
<path d="M74.3896 40.9734C74.3877 41.0433 74.401 41.1129 74.4285 41.1773C74.4561 41.2417 74.4973 41.2995 74.5494 41.3468C74.6625 41.4469 74.8106 41.4995 74.9622 41.4937C75.0646 41.4987 75.1666 41.478 75.2588 41.4337C75.351 41.3893 75.4304 41.3226 75.4895 41.2398L75.8558 41.4389C75.7545 41.5859 75.62 41.7075 75.4631 41.7943C75.3036 41.868 75.1287 41.9034 74.9528 41.8976C74.6293 41.8976 74.3715 41.8033 74.1794 41.6145C73.9873 41.4257 73.8912 41.1734 73.8912 40.8576C73.8817 40.5511 73.9947 40.2532 74.2058 40.0286C74.3072 39.9206 74.4307 39.8353 74.5681 39.7782C74.7054 39.7211 74.8535 39.6936 75.0025 39.6975C75.3125 39.6975 75.5571 39.7971 75.7362 39.9963C75.9154 40.1954 76.0062 40.4637 76.0087 40.801C76.0087 40.8359 76.0087 40.8931 76.0024 40.9722L74.3896 40.9734ZM75.5141 40.5825C75.4625 40.2639 75.2844 40.1046 74.9798 40.1046C74.6916 40.1046 74.5028 40.2639 74.4135 40.5825H75.5141Z" fill="#333333"/>
<path d="M45.943 22.4127H38.5055C38.2657 22.4128 38.0294 22.3559 37.8164 22.2469C37.6035 22.1378 37.4201 21.9799 37.2816 21.7862C37.1432 21.5925 37.0538 21.3688 37.021 21.1338C36.9881 20.8989 37.0128 20.6596 37.0928 20.436L40.6338 10.5594V7.19849L39.8157 6.31034C39.795 6.28805 39.7814 6.26029 39.7764 6.23045C39.7714 6.20061 39.7754 6.16998 39.7877 6.14231C39.8001 6.11464 39.8203 6.09113 39.8459 6.07466C39.8716 6.05819 39.9015 6.04947 39.9321 6.04956H44.5158C44.5463 6.04947 44.5763 6.05819 44.6019 6.07466C44.6276 6.09113 44.6478 6.11464 44.6602 6.14231C44.6725 6.16998 44.6764 6.20061 44.6715 6.23045C44.6665 6.26029 44.6528 6.28805 44.6322 6.31034L43.8141 7.19849V10.5594L47.3544 20.436C47.4346 20.6595 47.4594 20.8988 47.4266 21.1338C47.3939 21.3687 47.3045 21.5925 47.1662 21.7862C47.0278 21.9799 46.8444 22.1379 46.6314 22.2469C46.4185 22.356 46.1821 22.4128 45.9423 22.4127H45.943ZM40.2883 6.35951L40.9069 7.03293C40.9334 7.06145 40.9482 7.09874 40.9484 7.13749V10.5868C40.9484 10.6044 40.9452 10.6219 40.939 10.6384L37.3898 20.5387C37.3264 20.7153 37.3069 20.9044 37.3327 21.09C37.3586 21.2756 37.4292 21.4524 37.5385 21.6054C37.6479 21.7585 37.7928 21.8833 37.9611 21.9694C38.1294 22.0555 38.3161 22.1004 38.5055 22.1003H45.943C46.1324 22.1003 46.319 22.0553 46.4872 21.9691C46.6554 21.883 46.8003 21.7582 46.9096 21.6052C47.0189 21.4522 47.0895 21.2755 47.1154 21.0899C47.1414 20.9043 47.1219 20.7153 47.0587 20.5387L43.5089 10.6365C43.5032 10.6199 43.5002 10.6025 43.5001 10.5849V7.13687C43.5001 7.09819 43.5147 7.06089 43.541 7.03231L44.1602 6.35951H40.2883Z" fill="#333333"/>
<path d="M38.7571 21.5825H38.5538C38.4433 21.5822 38.3345 21.5558 38.2364 21.5054C38.1383 21.4551 38.0539 21.3822 37.9901 21.2929C37.9264 21.2037 37.8851 21.1006 37.8699 20.9923C37.8547 20.8841 37.8658 20.7738 37.9025 20.6707C37.9174 20.6331 37.9465 20.6027 37.9836 20.5859C38.0208 20.5692 38.0631 20.5673 38.1015 20.5808C38.14 20.5943 38.1717 20.6221 38.1899 20.6583C38.208 20.6944 38.2113 20.7362 38.1989 20.7746C38.1788 20.8309 38.1726 20.8911 38.1808 20.9502C38.1891 21.0093 38.2115 21.0655 38.2463 21.1143C38.281 21.1631 38.3271 21.2029 38.3806 21.2304C38.4341 21.2579 38.4935 21.2724 38.5538 21.2726H38.7571C38.7988 21.2726 38.8388 21.289 38.8683 21.3181C38.8978 21.3473 38.9144 21.3869 38.9144 21.4282C38.9144 21.4694 38.8978 21.509 38.8683 21.5382C38.8388 21.5674 38.7988 21.5838 38.7571 21.5838V21.5825Z" fill="#333333"/>
<path d="M46.2719 20.3127C46.246 20.3126 46.2207 20.3047 46.1995 20.2898C46.1784 20.275 46.1623 20.2541 46.1536 20.2299L42.7638 10.7809C42.7593 10.7674 42.7569 10.7533 42.7568 10.7392V7.73678C42.7568 7.70377 42.7701 7.67211 42.7937 7.64876C42.8173 7.62542 42.8493 7.6123 42.8827 7.6123C42.9161 7.6123 42.9481 7.62542 42.9717 7.64876C42.9953 7.67211 43.0085 7.70377 43.0085 7.73678V10.7174L46.3909 20.1465C46.3965 20.162 46.3989 20.1784 46.3981 20.1947C46.3972 20.2111 46.3931 20.2272 46.386 20.242C46.3788 20.2568 46.3688 20.27 46.3565 20.281C46.3442 20.292 46.3298 20.3004 46.3141 20.3059C46.3005 20.3105 46.2863 20.3128 46.2719 20.3127Z" fill="#333333"/>
<path d="M44.4125 15.6007C44.271 15.6002 44.1315 15.5683 44.0041 15.5074C43.8768 15.4464 43.7649 15.3579 43.6769 15.2484C43.5892 15.3586 43.4774 15.4476 43.3498 15.5089C43.2223 15.5701 43.0824 15.6019 42.9406 15.6019C42.7988 15.6019 42.6589 15.5701 42.5314 15.5089C42.4039 15.4476 42.292 15.3586 42.2044 15.2484C42.1167 15.3586 42.005 15.4476 41.8775 15.5089C41.75 15.5701 41.6101 15.6019 41.4684 15.6019C41.3267 15.6019 41.1868 15.5701 41.0593 15.5089C40.9319 15.4476 40.8201 15.3586 40.7325 15.2484C40.6285 15.3788 40.4911 15.4793 40.3345 15.5393C40.1779 15.5992 40.0079 15.6166 39.8423 15.5894C39.6766 15.5623 39.5214 15.4916 39.3927 15.3849C39.264 15.2782 39.1667 15.1393 39.1108 14.9826L39.3481 14.8992C39.3934 15.0265 39.476 15.1376 39.5854 15.2182C39.6948 15.2989 39.8259 15.3455 39.9622 15.3522C40.0985 15.3589 40.2337 15.3253 40.3506 15.2557C40.4674 15.1861 40.5608 15.0837 40.6186 14.9615C40.6287 14.9401 40.6449 14.922 40.665 14.9093C40.6852 14.8967 40.7086 14.89 40.7325 14.89C40.7564 14.89 40.7798 14.8967 40.7999 14.9093C40.8201 14.922 40.8362 14.9401 40.8464 14.9615C40.9017 15.0785 40.9895 15.1776 41.0997 15.2469C41.2099 15.3163 41.3378 15.3532 41.4684 15.3532C41.599 15.3532 41.7269 15.3163 41.8371 15.2469C41.9473 15.1776 42.0352 15.0785 42.0905 14.9615C42.1006 14.9401 42.1167 14.922 42.1369 14.9093C42.1571 14.8966 42.1805 14.8899 42.2044 14.8899C42.2283 14.8899 42.2517 14.8966 42.2718 14.9093C42.292 14.922 42.3081 14.9401 42.3183 14.9615C42.3735 15.0787 42.4613 15.1779 42.5716 15.2474C42.6818 15.3169 42.8099 15.3538 42.9406 15.3538C43.0713 15.3538 43.1994 15.3169 43.3096 15.2474C43.4199 15.1779 43.5078 15.0787 43.563 14.9615C43.5731 14.9401 43.5892 14.922 43.6094 14.9093C43.6296 14.8967 43.653 14.89 43.6769 14.89C43.7008 14.89 43.7241 14.8967 43.7443 14.9093C43.7645 14.922 43.7806 14.9401 43.7908 14.9615C43.8504 15.0876 43.9478 15.1925 44.0697 15.2621C44.1916 15.3317 44.3322 15.3625 44.4725 15.3505C44.6127 15.3385 44.7458 15.2842 44.8538 15.1949C44.9618 15.1056 45.0395 14.9857 45.0764 14.8513L45.3193 14.9136C45.2648 15.1104 45.1467 15.2841 44.9829 15.4082C44.8191 15.5323 44.6188 15.5999 44.4125 15.6007Z" fill="#333333"/>
<path d="M42.6694 16.7403C42.8835 16.7403 43.057 16.5686 43.057 16.3569C43.057 16.1452 42.8835 15.9735 42.6694 15.9735C42.4553 15.9735 42.2817 16.1452 42.2817 16.3569C42.2817 16.5686 42.4553 16.7403 42.6694 16.7403Z" fill="#CC0033"/>
<path d="M42.8826 21.7685C43.0338 21.7685 43.1564 21.6473 43.1564 21.4978C43.1564 21.3483 43.0338 21.2271 42.8826 21.2271C42.7314 21.2271 42.6089 21.3483 42.6089 21.4978C42.6089 21.6473 42.7314 21.7685 42.8826 21.7685Z" fill="#CC0033"/>
<path d="M44.3813 18.4904C44.5954 18.4904 44.7689 18.3188 44.7689 18.107C44.7689 17.8953 44.5954 17.7236 44.3813 17.7236C44.1672 17.7236 43.9937 17.8953 43.9937 18.107C43.9937 18.3188 44.1672 18.4904 44.3813 18.4904Z" fill="#CC0033"/>
<path d="M43.8027 19.2946C44.0168 19.2946 44.1903 19.123 44.1903 18.9112C44.1903 18.6995 44.0168 18.5278 43.8027 18.5278C43.5886 18.5278 43.415 18.6995 43.415 18.9112C43.415 19.123 43.5886 19.2946 43.8027 19.2946Z" fill="#CC0033"/>
<path d="M43.6762 21.2675C43.8903 21.2675 44.0638 21.0959 44.0638 20.8841C44.0638 20.6724 43.8903 20.5007 43.6762 20.5007C43.4621 20.5007 43.2886 20.6724 43.2886 20.8841C43.2886 21.0959 43.4621 21.2675 43.6762 21.2675Z" fill="#CC0033"/>
<path d="M42.7006 18.3715C42.9147 18.3715 43.0882 18.1999 43.0882 17.9881C43.0882 17.7764 42.9147 17.6047 42.7006 17.6047C42.4865 17.6047 42.313 17.7764 42.313 17.9881C42.313 18.1999 42.4865 18.3715 42.7006 18.3715Z" fill="#CC0033"/>
<path d="M43.6759 17.7024C43.9445 17.7024 44.1623 17.487 44.1623 17.2213C44.1623 16.9556 43.9445 16.7402 43.6759 16.7402C43.4072 16.7402 43.1895 16.9556 43.1895 17.2213C43.1895 17.487 43.4072 17.7024 43.6759 17.7024Z" fill="#CC0033"/>
<path d="M42.8824 20.4335C43.2366 20.4335 43.5237 20.1495 43.5237 19.7992C43.5237 19.449 43.2366 19.165 42.8824 19.165C42.5283 19.165 42.2412 19.449 42.2412 19.7992C42.2412 20.1495 42.5283 20.4335 42.8824 20.4335Z" fill="#CC0033"/>
<path d="M42.6405 7.03287C42.6206 7.03285 42.601 7.02816 42.5833 7.01918C42.5536 7.00415 42.5311 6.97807 42.5209 6.94668C42.5106 6.91528 42.5133 6.88114 42.5285 6.85176C43.1389 5.66923 42.8136 4.83959 41.9527 3.63402C40.883 2.13656 42.0226 0.357787 42.0345 0.34036C42.0528 0.312977 42.0812 0.293831 42.1137 0.287085C42.1462 0.280339 42.18 0.286538 42.2079 0.304336C42.2357 0.322133 42.2554 0.350089 42.2625 0.382126C42.2696 0.414162 42.2637 0.44769 42.246 0.475418C42.2353 0.4916 41.1882 2.13159 42.1585 3.49025C43.0571 4.74872 43.4171 5.67545 42.7525 6.96503C42.742 6.98544 42.726 7.00258 42.7062 7.01455C42.6864 7.02652 42.6637 7.03286 42.6405 7.03287Z" fill="#333333"/>
<path d="M42.776 3.18658C42.7526 3.18611 42.7297 3.17915 42.71 3.16651C42.6903 3.15386 42.6746 3.13602 42.6647 3.115C41.9888 1.69596 43.0127 0.12444 43.0567 0.0559781C43.0758 0.0303594 43.1041 0.01295 43.1358 0.00732835C43.1675 0.00170671 43.2001 0.00830003 43.227 0.025753C43.2539 0.043206 43.2731 0.0701925 43.2805 0.101165C43.2879 0.132138 43.283 0.164744 43.2669 0.192281C43.2568 0.20784 42.277 1.71713 42.8893 3.0092C42.8963 3.02414 42.9001 3.0403 42.9007 3.05673C42.9013 3.07317 42.8986 3.08956 42.8928 3.10495C42.8869 3.12035 42.878 3.13444 42.8666 3.14642C42.8552 3.1584 42.8416 3.16803 42.8264 3.17475C42.8106 3.1821 42.7935 3.18613 42.776 3.18658Z" fill="#333333"/>
<path d="M41.6454 7.03286C41.6255 7.03284 41.6058 7.02815 41.5881 7.01917C41.5584 7.00413 41.536 6.97806 41.5257 6.94666C41.5154 6.91527 41.5182 6.88113 41.5334 6.85174C42.1438 5.66921 41.8184 4.83957 40.9576 3.63401C40.5385 3.0471 40.4327 2.38924 40.6517 1.72142C40.6564 1.70532 40.6643 1.69032 40.6749 1.67731C40.6855 1.66429 40.6987 1.65353 40.7137 1.64567C40.7286 1.63782 40.745 1.63302 40.7619 1.63157C40.7787 1.63012 40.7957 1.63205 40.8118 1.63724C40.8279 1.64244 40.8428 1.65079 40.8555 1.66179C40.8683 1.6728 40.8786 1.68623 40.886 1.7013C40.8934 1.71636 40.8976 1.73274 40.8985 1.74946C40.8993 1.76618 40.8967 1.78289 40.8909 1.7986C40.6952 2.3936 40.7864 2.96308 41.1633 3.49024C42.062 4.7487 42.4219 5.67544 41.7574 6.96502C41.7468 6.98543 41.7308 7.00257 41.711 7.01454C41.6913 7.02651 41.6685 7.03285 41.6454 7.03286Z" fill="#333333"/>
</g>
<defs>
<clipPath id="clip0">
<rect width="160" height="80" fill="white"/>
</clipPath>
</defs>
</svg>
