<?xml version="1.0" encoding="utf-8"?>
<!-- Generator: Adobe Illustrator 25.4.1, SVG Export Plug-In . SVG Version: 6.00 Build 0)  -->
<svg version="1.1" xmlns="http://www.w3.org/2000/svg" xmlns:xlink="http://www.w3.org/1999/xlink" x="0px" y="0px"
	 viewBox="0 0 84 43" style="enable-background:new 0 0 84 43;" xml:space="preserve">
<style type="text/css">
	.st0{display:none;}
	.st1{display:inline;}
	.st2{clip-path:url(#SVGID_00000024687425373709825110000016622861646339718058_);}
	.st3{fill:#333333;}
	.st4{fill:#CC0033;}
	.st5{fill:none;stroke:#333333;stroke-width:5;stroke-linecap:round;stroke-linejoin:round;stroke-miterlimit:10;}
</style>
<g id="Layer_1" class="st0">
	<g class="st1">
		<defs>
			<rect id="SVGID_1_" width="84" height="43"/>
		</defs>
		<clipPath id="SVGID_00000005237758064210934650000012468135686156521097_">
			<use xlink:href="#SVGID_1_"  style="overflow:visible;"/>
		</clipPath>
		<g style="clip-path:url(#SVGID_00000005237758064210934650000012468135686156521097_);">
			<path class="st3" d="M3.7,25.1V37H2.6V25.1H0v-1h6.3v1H3.7z"/>
			<path class="st3" d="M12.4,32.1c0-0.6-0.2-1.1-0.6-1.5c-0.2-0.2-0.4-0.3-0.7-0.4c-0.3-0.1-0.5-0.1-0.8-0.1
				c-0.3,0-0.5,0.1-0.8,0.2c-0.3,0.1-0.5,0.3-0.7,0.4c-0.2,0.2-0.3,0.4-0.5,0.7c-0.1,0.3-0.2,0.5-0.2,0.8V37H7.1v-13h1.1v5.7
				c0.6-0.5,1.3-0.8,2.1-0.8c0.9,0,1.6,0.3,2.2,0.9c0.6,0.6,0.9,1.3,0.9,2.2V37h-1.1V32.1z"/>
			<path class="st3" d="M21.2,34.6l0.9,0.5c-0.3,0.6-0.9,1.2-1.5,1.6c-0.6,0.4-1.4,0.6-2.2,0.6c-1.1,0-2.1-0.4-2.9-1.2
				c-0.8-0.8-1.2-1.8-1.2-2.9c0-1.1,0.4-2.1,1.2-2.9c0.8-0.8,1.8-1.2,2.9-1.2c0.7,0,1.4,0.2,2,0.5c0.6,0.4,1.1,0.8,1.5,1.4l-5.4,4.7
				c0.5,0.4,1.1,0.6,1.7,0.6c0.6,0,1.2-0.1,1.8-0.4C20.6,35.5,20.9,35.1,21.2,34.6z M15.9,34.9l4.6-4c-0.6-0.5-1.3-0.8-2-0.7
				c-0.9,0-1.6,0.3-2.2,0.9c-0.6,0.6-0.9,1.3-0.9,2.2C15.4,33.7,15.5,34.3,15.9,34.9z"/>
			<path class="st4" d="M26.9,24.1c0.6,0,1.2,0.1,1.8,0.4c0.6,0.2,1.1,0.6,1.5,1c0.4,0.4,0.8,0.9,1,1.5c0.2,0.6,0.4,1.2,0.4,1.8
				c0,1.3-0.5,2.4-1.4,3.3c-0.9,0.9-2,1.4-3.3,1.4h-1.6V37h-1.1V25.1h-1.6l0.6-1H26.9z M25.4,32.3h1.6c1.1,0,2-0.4,2.6-1.1
				c0.7-0.7,1-1.6,1-2.5c0-0.7-0.2-1.3-0.5-1.9c-0.3-0.5-0.8-1-1.4-1.3c-0.5-0.3-1.1-0.4-1.8-0.4h-1.6V32.3z"/>
			<path class="st4" d="M32.5,26.2h1.1v1.1h-1.1V26.2z M32.5,29.2h1.1V37h-1.1V29.2z"/>
			<path class="st4" d="M42.7,41.2h1.3l-0.6,1h-1.8v-6.3c-0.8,0.9-1.9,1.4-3.1,1.4c-1.1,0-2.1-0.4-2.9-1.2c-0.8-0.8-1.2-1.8-1.2-2.9
				c0-1.1,0.4-2.1,1.2-2.9c0.8-0.8,1.8-1.2,2.9-1.2c1.2,0,2.2,0.4,3,1.3l1.2-1.1L42.7,41.2z M38.6,36.2c0.8,0,1.6-0.3,2.2-0.9
				s0.9-1.4,0.9-2.2c0-0.8-0.3-1.6-0.9-2.2s-1.4-0.9-2.2-0.9c-0.9,0-1.6,0.3-2.2,0.9c-0.6,0.6-0.9,1.3-0.9,2.2
				c0,0.9,0.3,1.6,0.9,2.2C37,35.9,37.7,36.2,38.6,36.2z"/>
			<path class="st4" d="M50.2,29.2V37l-0.9-0.7c-0.6,0.6-1.3,0.9-2.2,0.9c-0.9,0-1.6-0.3-2.2-0.9c-0.6-0.6-0.9-1.3-0.9-2.2v-4.9H45
				v4.9c0,0.3,0,0.5,0.2,0.8c0.1,0.3,0.3,0.5,0.5,0.7c0.4,0.4,0.9,0.6,1.5,0.6c0.6,0,1.1-0.2,1.5-0.6c0.4-0.4,0.6-0.9,0.6-1.4v-4.9
				H50.2z"/>
			<path class="st4" d="M58,34.6l0.9,0.5c-0.3,0.6-0.9,1.2-1.5,1.6c-0.6,0.4-1.4,0.6-2.2,0.6c-1.1,0-2.1-0.4-2.9-1.2
				c-0.8-0.8-1.2-1.8-1.2-2.9c0-1.1,0.4-2.1,1.2-2.9c0.8-0.8,1.8-1.2,2.9-1.2c0.7,0,1.4,0.2,2,0.5c0.6,0.4,1.1,0.8,1.5,1.4l-5.4,4.7
				c0.5,0.4,1.1,0.6,1.7,0.6c0.6,0,1.2-0.1,1.8-0.4C57.3,35.5,57.7,35.1,58,34.6z M52.6,34.9l4.6-4c-0.6-0.5-1.3-0.8-2-0.7
				c-0.9,0-1.6,0.3-2.2,0.9c-0.6,0.6-0.9,1.3-0.9,2.2C52.1,33.7,52.3,34.3,52.6,34.9L52.6,34.9z"/>
			<path class="st3" d="M65.2,37h-4.7v-13h1.1V36h3.6V37z"/>
			<path class="st3" d="M72.8,36c-0.8,0.9-1.8,1.3-3,1.3c-1.1,0-2.1-0.4-2.9-1.2c-0.8-0.8-1.2-1.8-1.2-2.9c0-1.1,0.4-2.1,1.2-2.9
				c0.8-0.8,1.8-1.2,2.9-1.2c1.2,0,2.2,0.4,3,1.3l1.2-1.1V37L72.8,36z M69.8,30.1c-0.9,0-1.6,0.3-2.2,0.9c-0.6,0.6-0.9,1.3-0.9,2.2
				c0,0.9,0.3,1.6,0.9,2.2c0.6,0.6,1.3,0.9,2.2,0.9c0.8,0,1.6-0.3,2.2-0.9c0.6-0.6,0.9-1.4,0.9-2.2c0-0.8-0.3-1.6-0.9-2.2
				C71.4,30.4,70.6,30.1,69.8,30.1z"/>
			<path class="st3" d="M75.7,25.1h-1.3l0.6-1h1.8v6.3c0.8-0.9,1.9-1.4,3.1-1.4c1.2,0,2.1,0.4,3,1.2C83.6,31,84,32,84,33.1
				c0,1.1-0.4,2.1-1.2,2.9c-0.8,0.8-1.8,1.2-3,1.2c-1.2,0-2.2-0.4-3-1.3L75.7,37V25.1z M79.8,30.1c-0.8,0-1.6,0.3-2.2,0.9
				c-0.6,0.6-0.9,1.4-0.9,2.2c0,0.8,0.3,1.6,0.9,2.2c0.6,0.6,1.4,0.9,2.2,0.9c0.9,0,1.6-0.3,2.2-0.9c0.6-0.6,0.9-1.3,0.9-2.2
				c0-0.9-0.3-1.6-0.9-2.2C81.4,30.4,80.7,30.1,79.8,30.1z"/>
			<path class="st3" d="M46.1,38.1l-0.5,3.7h-0.5l0.5-3.7H46.1z"/>
			<path class="st3" d="M46.8,41c0,0.1,0,0.1,0,0.2c0,0.1,0.1,0.1,0.1,0.2c0.1,0.1,0.3,0.2,0.4,0.1c0.1,0,0.2,0,0.3-0.1
				c0.1,0,0.2-0.1,0.2-0.2l0.4,0.2c-0.1,0.1-0.2,0.3-0.4,0.4c-0.2,0.1-0.3,0.1-0.5,0.1c-0.3,0-0.6-0.1-0.8-0.3
				c-0.2-0.2-0.3-0.4-0.3-0.8c0-0.3,0.1-0.6,0.3-0.8c0.1-0.1,0.2-0.2,0.4-0.3c0.1-0.1,0.3-0.1,0.4-0.1c0.3,0,0.6,0.1,0.7,0.3
				c0.2,0.2,0.3,0.5,0.3,0.8c0,0,0,0.1,0,0.2L46.8,41z M47.9,40.6c-0.1-0.3-0.2-0.5-0.5-0.5c-0.3,0-0.5,0.2-0.6,0.5H47.9z"/>
			<path class="st3" d="M51.2,39.8l-0.3,2.1h-0.5l0-0.2c-0.2,0.2-0.4,0.3-0.7,0.3c-0.1,0-0.3,0-0.4-0.1s-0.2-0.1-0.3-0.2
				c-0.2-0.2-0.3-0.4-0.3-0.7c0-0.3,0.1-0.6,0.3-0.8c0.1-0.1,0.2-0.2,0.4-0.2c0.1-0.1,0.3-0.1,0.4-0.1c0.1,0,0.3,0,0.4,0.1
				c0.1,0.1,0.2,0.1,0.3,0.2l0-0.3L51.2,39.8z M50.6,40.7c0-0.2-0.1-0.3-0.2-0.4c-0.1-0.1-0.1-0.1-0.2-0.1c-0.1,0-0.1,0-0.2,0
				c-0.1,0-0.2,0-0.3,0.1c-0.1,0-0.2,0.1-0.2,0.2c-0.1,0.1-0.2,0.3-0.2,0.5c0,0.2,0,0.3,0.2,0.4c0,0.1,0.1,0.1,0.2,0.1
				c0.1,0,0.1,0,0.2,0c0.1,0,0.2,0,0.3-0.1c0.1,0,0.2-0.1,0.2-0.2C50.5,41.1,50.6,40.9,50.6,40.7z"/>
			<path class="st3" d="M52.3,39.8l0,0.2c0.2-0.2,0.3-0.2,0.5-0.2c0.2,0,0.3,0.1,0.4,0.2l-0.3,0.4c-0.1-0.1-0.2-0.1-0.3-0.1
				c-0.1,0-0.1,0-0.2,0c-0.1,0-0.1,0.1-0.1,0.1c0,0.1-0.1,0.1-0.1,0.2c0,0.1,0,0.2-0.1,0.3l-0.1,1h-0.5l0.3-2.1H52.3z"/>
			<path class="st3" d="M54.1,39.8l0,0.2c0.2-0.2,0.4-0.2,0.6-0.2c0.2,0,0.4,0.1,0.5,0.2c0.1,0.1,0.1,0.1,0.1,0.2c0,0.1,0,0.2,0,0.2
				c0,0.1,0,0.3,0,0.4l-0.1,1.1h-0.5l0.2-1.2c0,0,0-0.1,0-0.1c0,0,0-0.1,0-0.1c0-0.2-0.1-0.3-0.3-0.3c-0.1,0-0.2,0-0.3,0.1
				c-0.1,0.1-0.1,0.1-0.2,0.2c0,0.1,0,0.1,0,0.2c0,0.1,0,0.1,0,0.2l-0.1,1h-0.5l0.3-2.1H54.1z"/>
			<path class="st3" d="M56.6,39.8l-0.3,2.1h-0.5l0.3-2.1H56.6z M56.8,38.8c0,0.1,0,0.1-0.1,0.2c0,0-0.1,0.1-0.2,0.1
				c0,0-0.1,0-0.1,0c0,0-0.1,0-0.1-0.1c0-0.1-0.1-0.1-0.1-0.2c0-0.1,0-0.1,0.1-0.2c0,0,0.1-0.1,0.2-0.1c0.1,0,0.1,0,0.2,0.1
				C56.7,38.6,56.8,38.7,56.8,38.8z"/>
			<path class="st3" d="M57.8,39.8l0,0.2c0.2-0.2,0.4-0.2,0.6-0.2c0.2,0,0.4,0.1,0.5,0.2c0.1,0.1,0.1,0.1,0.1,0.2c0,0.1,0,0.2,0,0.2
				c0,0.1,0,0.3,0,0.4l-0.1,1.1h-0.5l0.2-1.2c0,0,0-0.1,0-0.1c0,0,0-0.1,0-0.1c0-0.2-0.1-0.3-0.3-0.3c-0.1,0-0.2,0-0.3,0.1
				c-0.1,0.1-0.1,0.1-0.2,0.2c0,0.1,0,0.1,0,0.2c0,0.1,0,0.1,0,0.2l-0.1,1H57l0.3-2.1L57.8,39.8z"/>
			<path class="st3" d="M61.9,39.8l-0.3,2.1c0,0.1,0,0.2-0.1,0.3c0,0.1,0,0.2-0.1,0.2c-0.1,0.1-0.1,0.2-0.2,0.3
				c-0.2,0.2-0.5,0.3-0.8,0.3c-0.3,0-0.6-0.1-0.8-0.3c-0.1-0.1-0.2-0.2-0.2-0.3c0-0.1-0.1-0.3-0.1-0.4h0.5c0,0.2,0.1,0.3,0.2,0.4
				c0.1,0.1,0.2,0.1,0.4,0.1c0.2,0,0.4-0.1,0.5-0.2c0.1-0.1,0.2-0.3,0.2-0.5l0-0.3c-0.2,0.1-0.4,0.2-0.7,0.2c-0.1,0-0.3,0-0.4-0.1
				c-0.1,0-0.2-0.1-0.3-0.2c-0.2-0.2-0.3-0.5-0.3-0.7c0-0.2,0-0.3,0.1-0.4c0.1-0.1,0.1-0.3,0.2-0.4c0.1-0.1,0.2-0.2,0.4-0.2
				c0.1-0.1,0.3-0.1,0.4-0.1c0.1,0,0.3,0,0.4,0.1c0.1,0.1,0.2,0.1,0.3,0.2l0-0.3H61.9z M61.3,40.7c0-0.1,0-0.2,0-0.2
				c0-0.1-0.1-0.1-0.1-0.2c-0.1-0.1-0.1-0.1-0.2-0.1c-0.1,0-0.2,0-0.2,0c-0.1,0-0.2,0-0.3,0.1c-0.1,0-0.2,0.1-0.2,0.2
				c-0.1,0.1-0.2,0.3-0.2,0.5c0,0.2,0.1,0.3,0.2,0.5c0.1,0.1,0.1,0.1,0.2,0.1c0.1,0,0.2,0,0.2,0c0.1,0,0.2,0,0.3,0
				c0.1,0,0.2-0.1,0.2-0.2C61.3,41.1,61.3,40.9,61.3,40.7L61.3,40.7z"/>
			<path class="st3" d="M65.5,40l-0.1,0.5c-0.1-0.1-0.2-0.2-0.3-0.3c-0.1-0.1-0.2-0.1-0.3-0.1c-0.1,0-0.2,0-0.3,0.1
				s-0.2,0.1-0.2,0.2c-0.1,0.1-0.2,0.3-0.2,0.5c0,0.2,0.1,0.3,0.2,0.5c0.1,0.1,0.1,0.1,0.2,0.1c0.1,0,0.2,0,0.2,0
				c0.2,0,0.4-0.1,0.5-0.2l-0.1,0.5c-0.2,0.1-0.4,0.1-0.5,0.1c-0.1,0-0.3,0-0.4-0.1c-0.1-0.1-0.2-0.1-0.3-0.2
				c-0.2-0.2-0.3-0.5-0.3-0.8c0-0.3,0.1-0.6,0.3-0.8c0.1-0.1,0.2-0.2,0.4-0.2c0.1-0.1,0.3-0.1,0.4-0.1C65.1,39.7,65.3,39.8,65.5,40z
				"/>
			<path class="st3" d="M66.3,41c0,0.1,0,0.1,0,0.2c0,0.1,0.1,0.1,0.1,0.2c0.1,0.1,0.3,0.2,0.4,0.1c0.1,0,0.2,0,0.3-0.1
				c0.1,0,0.2-0.1,0.2-0.2l0.4,0.2c-0.1,0.1-0.2,0.3-0.4,0.4c-0.2,0.1-0.3,0.1-0.5,0.1c-0.3,0-0.6-0.1-0.8-0.3
				c-0.2-0.2-0.3-0.4-0.3-0.8c0-0.3,0.1-0.6,0.3-0.8c0.1-0.1,0.2-0.2,0.4-0.3c0.1-0.1,0.3-0.1,0.4-0.1c0.3,0,0.6,0.1,0.7,0.3
				c0.2,0.2,0.3,0.5,0.3,0.8c0,0,0,0.1,0,0.2L66.3,41z M67.4,40.6c-0.1-0.3-0.2-0.5-0.5-0.5c-0.3,0-0.5,0.2-0.6,0.5H67.4z"/>
			<path class="st3" d="M69.1,39.8l0,0.2c0.2-0.2,0.4-0.2,0.6-0.2c0.2,0,0.4,0.1,0.5,0.2c0.1,0.1,0.1,0.1,0.1,0.2c0,0.1,0,0.2,0,0.2
				c0,0.1,0,0.3,0,0.4l-0.1,1.1h-0.5l0.2-1.2c0,0,0-0.1,0-0.1c0,0,0-0.1,0-0.1c0-0.2-0.1-0.3-0.3-0.3c-0.1,0-0.2,0-0.3,0.1
				c-0.1,0.1-0.1,0.1-0.2,0.2c0,0.1,0,0.1,0,0.2c0,0.1,0,0.1,0,0.2l-0.1,1h-0.5l0.3-2.1H69.1z"/>
			<path class="st3" d="M71.6,40.2l-0.2,1.6h-0.5l0.2-1.6h-0.3l0.1-0.5h0.3l0.1-1h0.5l-0.1,1h0.5L72,40.2H71.6z"/>
			<path class="st3" d="M72.9,39.8l0,0.2c0.2-0.2,0.3-0.2,0.5-0.2c0.2,0,0.3,0.1,0.4,0.2l-0.3,0.4c-0.1-0.1-0.2-0.1-0.3-0.1
				c-0.1,0-0.1,0-0.2,0c-0.1,0-0.1,0.1-0.1,0.1c0,0.1-0.1,0.1-0.1,0.2c0,0.1,0,0.2-0.1,0.3l-0.1,1h-0.5l0.3-2.1H72.9z"/>
			<path class="st3" d="M74.4,41c0,0.1,0,0.1,0,0.2c0,0.1,0.1,0.1,0.1,0.2c0.1,0.1,0.3,0.2,0.4,0.1c0.1,0,0.2,0,0.3-0.1
				c0.1,0,0.2-0.1,0.2-0.2l0.4,0.2c-0.1,0.1-0.2,0.3-0.4,0.4c-0.2,0.1-0.3,0.1-0.5,0.1c-0.3,0-0.6-0.1-0.8-0.3
				c-0.2-0.2-0.3-0.4-0.3-0.8c0-0.3,0.1-0.6,0.3-0.8c0.1-0.1,0.2-0.2,0.4-0.3c0.1-0.1,0.3-0.1,0.4-0.1c0.3,0,0.6,0.1,0.7,0.3
				c0.2,0.2,0.3,0.5,0.3,0.8c0,0,0,0.1,0,0.2L74.4,41z M75.5,40.6c-0.1-0.3-0.2-0.5-0.5-0.5c-0.3,0-0.5,0.2-0.6,0.5H75.5z"/>
			<path class="st3" d="M45.9,22.4h-7.4c-0.2,0-0.5-0.1-0.7-0.2c-0.2-0.1-0.4-0.3-0.5-0.5c-0.1-0.2-0.2-0.4-0.3-0.7
				c0-0.2,0-0.5,0.1-0.7l3.5-9.9V7.2l-0.8-0.9c0,0,0-0.1,0-0.1c0,0,0-0.1,0-0.1c0,0,0-0.1,0.1-0.1c0,0,0.1,0,0.1,0h4.6
				c0,0,0.1,0,0.1,0c0,0,0,0,0.1,0.1c0,0,0,0.1,0,0.1c0,0,0,0.1,0,0.1l-0.8,0.9v3.4l3.5,9.9c0.1,0.2,0.1,0.5,0.1,0.7
				c0,0.2-0.1,0.5-0.3,0.7c-0.1,0.2-0.3,0.4-0.5,0.5C46.4,22.4,46.2,22.4,45.9,22.4L45.9,22.4z M40.3,6.4L40.9,7c0,0,0,0.1,0,0.1
				v3.4c0,0,0,0,0,0.1l-3.5,9.9c-0.1,0.2-0.1,0.4-0.1,0.6c0,0.2,0.1,0.4,0.2,0.5c0.1,0.2,0.3,0.3,0.4,0.4c0.2,0.1,0.4,0.1,0.5,0.1
				h7.4c0.2,0,0.4,0,0.5-0.1c0.2-0.1,0.3-0.2,0.4-0.4c0.1-0.2,0.2-0.3,0.2-0.5c0-0.2,0-0.4-0.1-0.6l-3.5-9.9c0,0,0,0,0-0.1V7.1
				c0,0,0-0.1,0-0.1l0.6-0.7H40.3z"/>
			<path class="st3" d="M38.8,21.6h-0.2c-0.1,0-0.2,0-0.3-0.1c-0.1-0.1-0.2-0.1-0.2-0.2c-0.1-0.1-0.1-0.2-0.1-0.3c0-0.1,0-0.2,0-0.3
				c0,0,0-0.1,0.1-0.1c0,0,0.1,0,0.1,0c0,0,0.1,0,0.1,0.1c0,0,0,0.1,0,0.1c0,0.1,0,0.1,0,0.2c0,0.1,0,0.1,0.1,0.2
				c0,0,0.1,0.1,0.1,0.1s0.1,0,0.2,0h0.2c0,0,0.1,0,0.1,0c0,0,0,0.1,0,0.1c0,0,0,0.1,0,0.1C38.8,21.6,38.8,21.6,38.8,21.6L38.8,21.6
				z"/>
			<path class="st3" d="M46.3,20.3C46.2,20.3,46.2,20.3,46.3,20.3c-0.1,0-0.1-0.1-0.1-0.1l-3.4-9.4c0,0,0,0,0,0v-3c0,0,0-0.1,0-0.1
				c0,0,0.1,0,0.1,0c0,0,0.1,0,0.1,0c0,0,0,0.1,0,0.1v3l3.4,9.4c0,0,0,0,0,0c0,0,0,0,0,0C46.4,20.3,46.4,20.3,46.3,20.3
				C46.3,20.3,46.3,20.3,46.3,20.3C46.3,20.3,46.3,20.3,46.3,20.3z"/>
			<path class="st3" d="M44.4,15.6c-0.1,0-0.3,0-0.4-0.1c-0.1-0.1-0.2-0.1-0.3-0.3c-0.1,0.1-0.2,0.2-0.3,0.3
				c-0.1,0.1-0.3,0.1-0.4,0.1s-0.3,0-0.4-0.1c-0.1-0.1-0.2-0.2-0.3-0.3c-0.1,0.1-0.2,0.2-0.3,0.3c-0.1,0.1-0.3,0.1-0.4,0.1
				s-0.3,0-0.4-0.1c-0.1-0.1-0.2-0.2-0.3-0.3c-0.1,0.1-0.2,0.2-0.4,0.3c-0.2,0.1-0.3,0.1-0.5,0.1c-0.2,0-0.3-0.1-0.4-0.2
				s-0.2-0.2-0.3-0.4l0.2-0.1c0,0.1,0.1,0.2,0.2,0.3c0.1,0.1,0.2,0.1,0.4,0.1c0.1,0,0.3,0,0.4-0.1c0.1-0.1,0.2-0.2,0.3-0.3
				c0,0,0,0,0-0.1c0,0,0,0,0.1,0c0,0,0,0,0.1,0c0,0,0,0,0,0.1c0.1,0.1,0.1,0.2,0.3,0.3c0.1,0.1,0.2,0.1,0.4,0.1s0.3,0,0.4-0.1
				c0.1-0.1,0.2-0.2,0.3-0.3c0,0,0,0,0-0.1c0,0,0,0,0.1,0s0,0,0.1,0c0,0,0,0,0,0.1c0.1,0.1,0.1,0.2,0.3,0.3c0.1,0.1,0.2,0.1,0.4,0.1
				c0.1,0,0.3,0,0.4-0.1c0.1-0.1,0.2-0.2,0.3-0.3c0,0,0,0,0-0.1c0,0,0,0,0.1,0c0,0,0,0,0.1,0c0,0,0,0,0,0.1c0.1,0.1,0.2,0.2,0.3,0.3
				c0.1,0.1,0.3,0.1,0.4,0.1c0.1,0,0.3-0.1,0.4-0.2c0.1-0.1,0.2-0.2,0.2-0.3l0.2,0.1c-0.1,0.2-0.2,0.4-0.3,0.5
				C44.8,15.5,44.6,15.6,44.4,15.6z"/>
			<path class="st4" d="M42.7,16.7c0.2,0,0.4-0.2,0.4-0.4c0-0.2-0.2-0.4-0.4-0.4s-0.4,0.2-0.4,0.4C42.3,16.6,42.5,16.7,42.7,16.7z"
				/>
			<path class="st4" d="M42.9,21.8c0.2,0,0.3-0.1,0.3-0.3s-0.1-0.3-0.3-0.3s-0.3,0.1-0.3,0.3S42.7,21.8,42.9,21.8z"/>
			<path class="st4" d="M44.4,18.5c0.2,0,0.4-0.2,0.4-0.4c0-0.2-0.2-0.4-0.4-0.4c-0.2,0-0.4,0.2-0.4,0.4
				C44,18.3,44.2,18.5,44.4,18.5z"/>
			<path class="st4" d="M43.8,19.3c0.2,0,0.4-0.2,0.4-0.4c0-0.2-0.2-0.4-0.4-0.4s-0.4,0.2-0.4,0.4C43.4,19.1,43.6,19.3,43.8,19.3z"
				/>
			<path class="st4" d="M43.7,21.3c0.2,0,0.4-0.2,0.4-0.4c0-0.2-0.2-0.4-0.4-0.4s-0.4,0.2-0.4,0.4C43.3,21.1,43.5,21.3,43.7,21.3z"
				/>
			<path class="st4" d="M42.7,18.4c0.2,0,0.4-0.2,0.4-0.4c0-0.2-0.2-0.4-0.4-0.4s-0.4,0.2-0.4,0.4C42.3,18.2,42.5,18.4,42.7,18.4z"
				/>
			<path class="st4" d="M43.7,17.7c0.3,0,0.5-0.2,0.5-0.5s-0.2-0.5-0.5-0.5c-0.3,0-0.5,0.2-0.5,0.5S43.4,17.7,43.7,17.7z"/>
			<path class="st4" d="M42.9,20.4c0.4,0,0.6-0.3,0.6-0.6c0-0.4-0.3-0.6-0.6-0.6c-0.4,0-0.6,0.3-0.6,0.6
				C42.2,20.1,42.5,20.4,42.9,20.4z"/>
			<path class="st3" d="M42.6,7C42.6,7,42.6,7,42.6,7c-0.1,0-0.1-0.1-0.1-0.1c0,0,0-0.1,0-0.1c0.6-1.2,0.3-2-0.6-3.2
				C40.9,2.1,42,0.4,42,0.3c0,0,0,0,0.1-0.1c0,0,0.1,0,0.1,0c0,0,0,0,0.1,0.1c0,0,0,0.1,0,0.1c0,0-1.1,1.7-0.1,3
				c0.9,1.3,1.3,2.2,0.6,3.5C42.7,7,42.7,7,42.6,7C42.7,7,42.7,7,42.6,7z"/>
			<path class="st3" d="M42.8,3.2C42.8,3.2,42.7,3.2,42.8,3.2c-0.1,0-0.1-0.1-0.1-0.1c-0.7-1.4,0.3-3,0.4-3.1c0,0,0,0,0.1,0
				c0,0,0.1,0,0.1,0c0,0,0,0,0.1,0.1c0,0,0,0.1,0,0.1c0,0-1,1.5-0.4,2.8c0,0,0,0,0,0c0,0,0,0,0,0C42.9,3.1,42.9,3.1,42.8,3.2
				C42.9,3.2,42.8,3.2,42.8,3.2C42.8,3.2,42.8,3.2,42.8,3.2z"/>
			<path class="st3" d="M41.6,7C41.6,7,41.6,7,41.6,7c-0.1,0-0.1-0.1-0.1-0.1c0,0,0-0.1,0-0.1c0.6-1.2,0.3-2-0.6-3.2
				c-0.4-0.6-0.5-1.2-0.3-1.9c0,0,0,0,0,0c0,0,0,0,0,0c0,0,0,0,0,0c0,0,0,0,0,0c0,0,0,0,0,0c0,0,0,0,0,0c0,0,0,0,0,0c0,0,0,0,0,0
				c-0.2,0.6-0.1,1.2,0.3,1.7c0.9,1.3,1.3,2.2,0.6,3.5C41.7,7,41.7,7,41.6,7C41.7,7,41.7,7,41.6,7z"/>
		</g>
	</g>
</g>
<g id="Layer_2">
	<g>
		<g>
			<g>
				<path class="st3" d="M14.3,24v12.7h-1.1V24h-2.7v-1.1H17V24H14.3z"/>
			</g>
			<g>
				<path class="st3" d="M23.4,31.4c0-0.6-0.2-1.2-0.6-1.6c-0.4-0.4-0.9-0.6-1.6-0.6c-0.6,0-1.1,0.2-1.6,0.6
					c-0.4,0.4-0.6,0.9-0.6,1.6v5.2h-1.1V22.9H19V29c0.6-0.6,1.4-0.8,2.2-0.8c0.9,0,1.7,0.3,2.4,1c0.6,0.6,1,1.4,1,2.4v5.2h-1.1V31.4
					z"/>
			</g>
			<g>
				<path class="st3" d="M32.7,34l1,0.5c-0.4,0.7-0.9,1.2-1.6,1.7c-0.7,0.4-1.4,0.6-2.3,0.6c-1.2,0-2.2-0.4-3.1-1.3
					c-0.9-0.9-1.3-1.9-1.3-3.1c0-1.2,0.4-2.3,1.3-3.1c0.9-0.9,1.9-1.3,3.1-1.3c0.8,0,1.5,0.2,2.1,0.6c0.7,0.4,1.2,0.9,1.6,1.4
					l-5.7,5c0.6,0.4,1.2,0.6,2,0.6c0.6,0,1.2-0.2,1.7-0.5C32,35,32.4,34.6,32.7,34z M27.1,34.3l4.8-4.3c-0.6-0.5-1.3-0.8-2.1-0.8
					c-0.9,0-1.7,0.3-2.3,0.9c-0.6,0.6-0.9,1.4-0.9,2.3C26.5,33.2,26.7,33.8,27.1,34.3z"/>
			</g>
			<g>
				<path class="st4" d="M38.8,22.9c0.9,0,1.7,0.2,2.5,0.7c0.8,0.4,1.4,1,1.8,1.8c0.4,0.8,0.7,1.6,0.7,2.5c0,1.4-0.5,2.5-1.4,3.5
					c-1,1-2.1,1.4-3.5,1.4h-1.6v3.9H36V24h-1.7l0.7-1.1H38.8z M37.1,31.6h1.6c1.1,0,2.1-0.4,2.8-1.1c0.7-0.8,1.1-1.6,1.1-2.7
					c0-0.8-0.2-1.4-0.5-2c-0.4-0.6-0.8-1-1.4-1.3C40,24.1,39.4,24,38.8,24h-1.6V31.6z"/>
			</g>
			<g>
				<path class="st4" d="M44.6,25.1h1.1v1.2h-1.1V25.1z M44.6,28.4h1.1v8.3h-1.1V28.4z"/>
			</g>
			<g>
				<path class="st3" d="M53.8,36.7h-4.9V22.9h1.1v12.7h3.8V36.7z"/>
			</g>
			<g>
				<path class="st3" d="M61.8,35.5c-0.9,0.9-1.9,1.4-3.2,1.4c-1.2,0-2.2-0.4-3.1-1.3c-0.9-0.9-1.3-1.9-1.3-3.1
					c0-1.2,0.4-2.3,1.3-3.1c0.9-0.9,1.9-1.3,3.1-1.3c1.2,0,2.3,0.5,3.2,1.4l1.2-1.1v8.3L61.8,35.5z M58.6,29.3
					c-0.9,0-1.7,0.3-2.3,0.9c-0.6,0.6-0.9,1.4-0.9,2.3c0,0.9,0.3,1.7,0.9,2.3c0.6,0.6,1.4,0.9,2.3,0.9c0.9,0,1.7-0.3,2.3-1
					c0.6-0.6,1-1.4,1-2.3c0-0.9-0.3-1.7-1-2.3C60.3,29.6,59.6,29.3,58.6,29.3z"/>
			</g>
			<g>
				<path class="st3" d="M64.8,24h-1.4l0.6-1.1h1.9v6.7c0.9-1,2-1.5,3.3-1.5c1.2,0,2.3,0.4,3.1,1.3c0.9,0.9,1.3,1.9,1.3,3.1
					c0,1.2-0.4,2.2-1.3,3.1c-0.9,0.9-1.9,1.3-3.1,1.3c-1.2,0-2.3-0.5-3.2-1.4l-1.2,1.1V24z M69.2,29.3c-0.9,0-1.7,0.3-2.3,1
					c-0.6,0.6-1,1.4-1,2.3c0,0.9,0.3,1.7,1,2.3c0.6,0.6,1.4,1,2.3,1c0.9,0,1.7-0.3,2.3-0.9c0.6-0.6,0.9-1.4,0.9-2.3
					c0-0.9-0.3-1.7-0.9-2.3C70.9,29.6,70.1,29.3,69.2,29.3z"/>
			</g>
		</g>
		<g>
			<g>
				<path class="st3" d="M39.5,37.8L39,41.8h-0.5l0.5-3.9H39.5z"/>
			</g>
			<g>
				<path class="st3" d="M40.2,40.8c0,0.2,0.1,0.3,0.2,0.4c0.1,0.1,0.3,0.2,0.4,0.2c0.2,0,0.4-0.1,0.6-0.3l0.4,0.2
					c-0.1,0.2-0.3,0.3-0.4,0.4c-0.1,0.1-0.3,0.1-0.5,0.1c-0.3,0-0.6-0.1-0.8-0.3c-0.2-0.2-0.3-0.5-0.3-0.8c0-0.4,0.1-0.6,0.3-0.9
					c0.2-0.2,0.5-0.4,0.8-0.4c0.3,0,0.6,0.1,0.8,0.3c0.2,0.2,0.3,0.5,0.3,0.9c0,0,0,0.1,0,0.2H40.2z M41.4,40.4
					c-0.1-0.3-0.2-0.5-0.6-0.5c-0.3,0-0.5,0.2-0.6,0.5H41.4z"/>
			</g>
			<g>
				<path class="st3" d="M44.8,39.6l-0.3,2.2H44l0-0.2c-0.2,0.2-0.4,0.3-0.7,0.3c-0.3,0-0.5-0.1-0.7-0.3c-0.2-0.2-0.3-0.5-0.3-0.8
					c0-0.4,0.1-0.7,0.3-0.9c0.2-0.2,0.5-0.3,0.8-0.3c0.2,0,0.3,0,0.4,0.1c0.1,0.1,0.2,0.1,0.3,0.3l0-0.3H44.8z M44.2,40.6
					c0-0.2-0.1-0.4-0.2-0.5c-0.1-0.1-0.3-0.2-0.4-0.2c-0.2,0-0.4,0.1-0.5,0.2c-0.1,0.2-0.2,0.3-0.2,0.6c0,0.2,0.1,0.4,0.2,0.5
					c0.1,0.1,0.2,0.2,0.4,0.2c0.2,0,0.4-0.1,0.5-0.2C44.1,41,44.2,40.8,44.2,40.6z"/>
			</g>
			<g>
				<path class="st3" d="M46,39.6l0,0.2c0.2-0.2,0.3-0.2,0.5-0.2c0.2,0,0.3,0.1,0.4,0.2l-0.3,0.4C46.6,40,46.5,40,46.4,40
					c-0.1,0-0.1,0-0.2,0c0,0-0.1,0.1-0.1,0.1c0,0.1-0.1,0.1-0.1,0.2c0,0.1,0,0.2-0.1,0.3l-0.1,1.1h-0.5l0.3-2.2H46z"/>
			</g>
			<g>
				<path class="st3" d="M47.9,39.6l0,0.2c0.2-0.2,0.4-0.3,0.6-0.3c0.2,0,0.4,0.1,0.5,0.2c0.1,0.1,0.2,0.3,0.2,0.5
					c0,0.1,0,0.2,0,0.4L49,41.8h-0.5l0.2-1.3c0,0,0-0.1,0-0.1c0,0,0-0.1,0-0.1c0-0.2-0.1-0.3-0.3-0.3c-0.1,0-0.2,0-0.3,0.1
					c-0.1,0.1-0.1,0.1-0.2,0.2c0,0,0,0.1-0.1,0.2c0,0.1,0,0.1,0,0.2l-0.1,1.1h-0.5l0.3-2.2H47.9z"/>
			</g>
			<g>
				<path class="st3" d="M50.5,39.6l-0.3,2.2h-0.5l0.3-2.2H50.5z M50.7,38.5c0,0.1,0,0.1-0.1,0.2c-0.1,0.1-0.1,0.1-0.2,0.1
					c-0.1,0-0.1,0-0.2-0.1c-0.1-0.1-0.1-0.1-0.1-0.2c0-0.1,0-0.1,0.1-0.2c0.1-0.1,0.1-0.1,0.2-0.1c0.1,0,0.1,0,0.2,0.1
					C50.7,38.4,50.7,38.4,50.7,38.5z"/>
			</g>
			<g>
				<path class="st3" d="M51.8,39.6l0,0.2c0.2-0.2,0.4-0.3,0.6-0.3c0.2,0,0.4,0.1,0.5,0.2c0.1,0.1,0.2,0.3,0.2,0.5
					c0,0.1,0,0.2,0,0.4l-0.1,1.2h-0.5l0.2-1.3c0,0,0-0.1,0-0.1c0,0,0-0.1,0-0.1c0-0.2-0.1-0.3-0.3-0.3c-0.1,0-0.2,0-0.3,0.1
					c-0.1,0.1-0.1,0.1-0.2,0.2c0,0,0,0.1-0.1,0.2c0,0.1,0,0.1,0,0.2l-0.1,1.1H51l0.3-2.2H51.8z"/>
			</g>
			<g>
				<path class="st3" d="M56.1,39.6l-0.3,2.2c0,0.1,0,0.2-0.1,0.3c0,0.1,0,0.2-0.1,0.2c-0.1,0.1-0.1,0.3-0.2,0.4
					C55.2,42.9,55,43,54.6,43c-0.3,0-0.6-0.1-0.8-0.3c-0.1-0.1-0.2-0.2-0.2-0.3c0-0.1-0.1-0.3-0.1-0.4H54c0,0.2,0.1,0.4,0.2,0.5
					c0.1,0.1,0.2,0.1,0.4,0.1c0.2,0,0.4-0.1,0.5-0.2c0.1-0.1,0.2-0.3,0.2-0.5l0-0.3c-0.2,0.2-0.4,0.2-0.7,0.2
					c-0.3,0-0.5-0.1-0.7-0.3c-0.2-0.2-0.3-0.5-0.3-0.8c0-0.3,0.1-0.6,0.3-0.9c0.2-0.2,0.5-0.3,0.9-0.3c0.2,0,0.3,0,0.4,0.1
					c0.1,0,0.2,0.1,0.3,0.3l0-0.3H56.1z M55.5,40.6c0-0.2-0.1-0.4-0.2-0.5c-0.1-0.1-0.3-0.2-0.5-0.2c-0.2,0-0.4,0.1-0.5,0.2
					c-0.1,0.1-0.2,0.3-0.2,0.6c0,0.2,0.1,0.4,0.2,0.5c0.1,0.1,0.3,0.2,0.5,0.2c0.2,0,0.4-0.1,0.5-0.2C55.4,41,55.5,40.8,55.5,40.6z"
					/>
			</g>
			<g>
				<path class="st3" d="M59.9,39.8l-0.1,0.5c-0.1-0.1-0.2-0.2-0.3-0.3c-0.1-0.1-0.2-0.1-0.3-0.1c-0.2,0-0.4,0.1-0.5,0.2
					c-0.1,0.1-0.2,0.3-0.2,0.6c0,0.2,0.1,0.4,0.2,0.5c0.1,0.1,0.3,0.2,0.5,0.2c0.2,0,0.4-0.1,0.6-0.2l-0.1,0.5
					c-0.2,0.1-0.4,0.1-0.6,0.1c-0.3,0-0.6-0.1-0.8-0.3C58.1,41.3,58,41,58,40.7c0-0.3,0.1-0.6,0.3-0.9c0.2-0.2,0.5-0.3,0.8-0.3
					C59.4,39.5,59.7,39.6,59.9,39.8z"/>
			</g>
			<g>
				<path class="st3" d="M60.7,40.8c0,0.2,0.1,0.3,0.2,0.4c0.1,0.1,0.3,0.2,0.4,0.2c0.2,0,0.4-0.1,0.6-0.3l0.4,0.2
					c-0.1,0.2-0.3,0.3-0.4,0.4c-0.1,0.1-0.3,0.1-0.5,0.1c-0.3,0-0.6-0.1-0.8-0.3c-0.2-0.2-0.3-0.5-0.3-0.8c0-0.4,0.1-0.6,0.3-0.9
					c0.2-0.2,0.5-0.4,0.8-0.4c0.3,0,0.6,0.1,0.8,0.3c0.2,0.2,0.3,0.5,0.3,0.9c0,0,0,0.1,0,0.2H60.7z M61.9,40.4
					c-0.1-0.3-0.2-0.5-0.6-0.5c-0.3,0-0.5,0.2-0.6,0.5H61.9z"/>
			</g>
			<g>
				<path class="st3" d="M63.7,39.6l0,0.2c0.2-0.2,0.4-0.3,0.6-0.3c0.2,0,0.4,0.1,0.5,0.2c0.1,0.1,0.2,0.3,0.2,0.5
					c0,0.1,0,0.2,0,0.4l-0.1,1.2h-0.5l0.2-1.3c0,0,0-0.1,0-0.1c0,0,0-0.1,0-0.1c0-0.2-0.1-0.3-0.3-0.3c-0.1,0-0.2,0-0.3,0.1
					c-0.1,0.1-0.1,0.1-0.2,0.2c0,0,0,0.1-0.1,0.2c0,0.1,0,0.1,0,0.2l-0.1,1.1h-0.5l0.3-2.2H63.7z"/>
			</g>
			<g>
				<path class="st3" d="M66.3,40l-0.2,1.7h-0.5l0.2-1.7h-0.3l0.1-0.5h0.3l0.1-1h0.5l-0.1,1h0.5L66.8,40H66.3z"/>
			</g>
			<g>
				<path class="st3" d="M67.7,39.6l0,0.2c0.2-0.2,0.3-0.2,0.5-0.2c0.2,0,0.3,0.1,0.4,0.2l-0.3,0.4C68.2,40,68.1,40,68,40
					c-0.1,0-0.1,0-0.2,0c0,0-0.1,0.1-0.1,0.1c0,0.1-0.1,0.1-0.1,0.2c0,0.1,0,0.2-0.1,0.3l-0.1,1.1h-0.5l0.3-2.2H67.7z"/>
			</g>
			<g>
				<path class="st3" d="M69.2,40.8c0,0.2,0.1,0.3,0.2,0.4c0.1,0.1,0.3,0.2,0.4,0.2c0.2,0,0.4-0.1,0.6-0.3l0.4,0.2
					c-0.1,0.2-0.3,0.3-0.4,0.4c-0.1,0.1-0.3,0.1-0.5,0.1c-0.3,0-0.6-0.1-0.8-0.3c-0.2-0.2-0.3-0.5-0.3-0.8c0-0.4,0.1-0.6,0.3-0.9
					c0.2-0.2,0.5-0.4,0.8-0.4c0.3,0,0.6,0.1,0.8,0.3c0.2,0.2,0.3,0.5,0.3,0.9c0,0,0,0.1,0,0.2H69.2z M70.4,40.4
					c-0.1-0.3-0.2-0.5-0.6-0.5c-0.3,0-0.5,0.2-0.6,0.5H70.4z"/>
			</g>
		</g>
		<g>
			<g>
				<g>
					<path class="st3" d="M44.8,15C44.8,15,44.8,15,44.8,15c-0.1,0-0.2-0.1-0.2-0.2c0.1-1.1,0.5-2.2,1.2-3c0.8-0.9,1.2-2.1,1.2-3.3
						c0-1.4-0.5-2.6-1.5-3.6c-1-1-2.2-1.5-3.6-1.4c-2.7,0-4.9,2.3-5,5c0,1.2,0.4,2.4,1.2,3.3c0.7,0.9,1.2,1.9,1.2,3.1
						c0,0.1-0.1,0.2-0.2,0.2c-0.1,0-0.2-0.1-0.2-0.2c-0.1-1-0.5-2-1.1-2.9c-0.8-1-1.3-2.2-1.2-3.5c0-1.4,0.6-2.7,1.6-3.7
						c1-1,2.3-1.6,3.7-1.6c1.4,0,2.8,0.5,3.8,1.5c1,1,1.6,2.4,1.6,3.8c0,1.3-0.5,2.5-1.3,3.5c-0.7,0.8-1.1,1.8-1.1,2.8
						C45,14.9,44.9,15,44.8,15z"/>
				</g>
				<g>
					<path class="st4" d="M39.4,15.8c-0.2,0-0.3-0.1-0.3-0.3s0.1-0.3,0.3-0.3c0.7,0,1.2-0.6,1.2-1.2V8.7c0-0.2,0.1-0.3,0.3-0.3
						s0.3,0.1,0.3,0.3v5.2C41.3,15,40.4,15.8,39.4,15.8z"/>
				</g>
				<g>
					<path class="st4" d="M44.7,15.8c-1.1,0-1.9-0.9-1.9-1.9V8.7c0-0.2,0.1-0.3,0.3-0.3c0.2,0,0.3,0.1,0.3,0.3v5.2
						c0,0.7,0.6,1.2,1.2,1.2c0.2,0,0.3,0.1,0.3,0.3S44.9,15.8,44.7,15.8z"/>
				</g>
				<g>
					<path class="st4" d="M39.3,9.7c-0.1,0-0.1,0-0.2,0C39,9.6,38.9,9.4,39,9.2l0.4-0.6c0.2-0.3,0.5-0.5,0.9-0.5h3.4
						C43.8,8.1,44,8,44,7.9l0.4-0.6c0.1-0.2,0.3-0.2,0.5-0.1C45,7.2,45.1,7.4,45,7.6l-0.4,0.6c-0.2,0.3-0.5,0.5-0.9,0.5h-3.4
						c-0.1,0-0.3,0.1-0.3,0.2l-0.4,0.6C39.5,9.7,39.4,9.7,39.3,9.7z"/>
				</g>
				<g>
					<path class="st3" d="M44.8,16.4h-5.5c-0.1,0-0.2-0.1-0.2-0.2c0-0.1,0.1-0.2,0.2-0.2h5.5c0.1,0,0.2,0.1,0.2,0.2
						C44.9,16.4,44.9,16.4,44.8,16.4z"/>
				</g>
				<g>
					<path class="st3" d="M44.2,18h-4.5c-0.1,0-0.2-0.1-0.2-0.2V17c0-0.1,0.1-0.2,0.2-0.2h4.5c0.1,0,0.2,0.1,0.2,0.2v0.8
						C44.4,17.9,44.3,18,44.2,18z M39.9,17.6h4.1v-0.5h-4.1V17.6z"/>
				</g>
			</g>
			<g>
				<path class="st3" d="M42.6,19.4h-1.1c-0.6,0-1.1-0.5-1.1-1.1c0-0.1,0.1-0.2,0.2-0.2h2.9c0.1,0,0.2,0.1,0.2,0.2
					C43.6,19,43.2,19.4,42.6,19.4z M40.8,18.6c0.1,0.3,0.4,0.6,0.7,0.6h1.1c0.3,0,0.6-0.2,0.7-0.6H40.8z"/>
			</g>
			<g>
				<path class="st3" d="M42,2.4c-0.1,0-0.1-0.1-0.1-0.1V0.1C41.9,0.1,41.9,0,42,0s0.1,0.1,0.1,0.1v2.1C42.1,2.3,42.1,2.4,42,2.4z"
					/>
			</g>
			<g>
				<path class="st3" d="M38.9,3.2c0,0-0.1,0-0.1-0.1l-1.1-1.8c0-0.1,0-0.1,0-0.2c0.1,0,0.1,0,0.2,0L39,3C39,3.1,39,3.2,38.9,3.2
					C38.9,3.2,38.9,3.2,38.9,3.2z"/>
			</g>
			<g>
				<path class="st3" d="M36.5,5.5C36.5,5.5,36.5,5.5,36.5,5.5L35,4.6c-0.1,0-0.1-0.1,0-0.2c0-0.1,0.1-0.1,0.2,0l1.5,0.9
					c0.1,0,0.1,0.1,0,0.2C36.6,5.5,36.6,5.5,36.5,5.5z"/>
			</g>
			<g>
				<path class="st3" d="M35.7,8.7h-1.2c-0.1,0-0.1-0.1-0.1-0.1s0.1-0.1,0.1-0.1h1.2c0.1,0,0.1,0.1,0.1,0.1S35.8,8.7,35.7,8.7z"/>
			</g>
			<g>
				<path class="st3" d="M36,12.1c0,0-0.1,0-0.1-0.1c0-0.1,0-0.1,0-0.2l0.6-0.3c0.1,0,0.1,0,0.2,0c0,0.1,0,0.1,0,0.2L36,12.1
					C36,12.1,36,12.1,36,12.1z"/>
			</g>
			<g>
				<path class="st3" d="M45.7,6.2c-0.1,0-0.1,0-0.1-0.1c-0.5-0.7-1.1-1.3-1.9-1.6c-0.1,0-0.1-0.1-0.1-0.2c0-0.1,0.1-0.1,0.2-0.1
					c0.8,0.4,1.6,0.9,2.1,1.7C45.9,6,45.9,6.2,45.7,6.2C45.8,6.2,45.8,6.2,45.7,6.2z"/>
			</g>
			<g>
				<path class="st5" d="M45.7,6.1"/>
			</g>
			<g>
				<path class="st3" d="M38.2,11c-0.1,0-0.1,0-0.1-0.1c-0.4-0.7-0.7-1.5-0.7-2.4c0-0.8,0.2-1.7,0.7-2.4c0-0.1,0.1-0.1,0.2-0.1
					c0.1,0,0.1,0.1,0.1,0.2c-0.4,0.7-0.6,1.4-0.6,2.2c0,0.8,0.2,1.5,0.6,2.2C38.3,10.8,38.3,10.9,38.2,11C38.2,11,38.2,11,38.2,11z"
					/>
			</g>
			<g>
				<path class="st3" d="M42,2.4c-0.1,0-0.1-0.1-0.1-0.1V0.1C41.9,0.1,41.9,0,42,0s0.1,0.1,0.1,0.1v2.1C42.1,2.3,42.1,2.4,42,2.4z"
					/>
			</g>
			<g>
				<path class="st3" d="M45.1,3.2C45.1,3.2,45.1,3.2,45.1,3.2C45,3.2,45,3.1,45,3l1.1-1.8c0-0.1,0.1-0.1,0.2,0c0.1,0,0.1,0.1,0,0.2
					l-1.1,1.8C45.2,3.2,45.2,3.2,45.1,3.2z"/>
			</g>
			<g>
				<path class="st3" d="M47.5,5.5c0,0-0.1,0-0.1-0.1c0-0.1,0-0.1,0-0.2l1.5-0.9c0.1,0,0.1,0,0.2,0c0,0.1,0,0.1,0,0.2L47.5,5.5
					C47.5,5.5,47.5,5.5,47.5,5.5z"/>
			</g>
			<g>
				<path class="st3" d="M49.5,8.7h-1.2c-0.1,0-0.1-0.1-0.1-0.1s0.1-0.1,0.1-0.1h1.2c0.1,0,0.1,0.1,0.1,0.1S49.5,8.7,49.5,8.7z"/>
			</g>
			<g>
				<path class="st3" d="M48,12.1C48,12.1,48,12.1,48,12.1l-0.6-0.3c-0.1,0-0.1-0.1,0-0.2c0-0.1,0.1-0.1,0.2,0l0.6,0.3
					c0.1,0,0.1,0.1,0,0.2C48.1,12.1,48.1,12.1,48,12.1z"/>
			</g>
		</g>
	</g>
</g>
</svg>
